<svg version="1.1" viewBox="0.0 0.0 600.0 371.0" fill="none" stroke="none" stroke-linecap="square" stroke-miterlimit="10" width="600" height="371" xmlns:xlink="http://www.w3.org/1999/xlink" xmlns="http://www.w3.org/2000/svg"><path fill="#ffffff" d="M0 0L600.0 0L600.0 371.0L0 371.0L0 0Z" fill-rule="nonzero"/><path stroke="#333333" stroke-width="1.0" stroke-linecap="butt" d="M77.5 300.5L581.5 300.5" fill-rule="nonzero"/><path stroke="#cccccc" stroke-width="1.0" stroke-linecap="butt" d="M77.5 246.5L581.5 246.5" fill-rule="nonzero"/><path stroke="#cccccc" stroke-width="1.0" stroke-linecap="butt" d="M77.5 192.5L581.5 192.5" fill-rule="nonzero"/><path stroke="#cccccc" stroke-width="1.0" stroke-linecap="butt" d="M77.5 139.5L581.5 139.5" fill-rule="nonzero"/><path stroke="#cccccc" stroke-width="1.0" stroke-linecap="butt" d="M77.5 85.5L581.5 85.5" fill-rule="nonzero"/><clipPath id="id_0"><path d="M77.55 85.416664L581.45 85.416664L581.45 300.45L77.55 300.45L77.55 85.416664Z" clip-rule="nonzero"/></clipPath><path stroke="#000000" stroke-width="2.0" stroke-linecap="butt" stroke-opacity="0.0" clip-path="url(#id_0)" d="M292.0 300.0L153.0 300.0L153.0 138.0C153.0 136.89543 153.89543 136.0 155.0 136.0L290.0 136.0C291.10458 136.0 292.0 136.89543 292.0 138.0Z" fill-rule="nonzero"/><path fill="#cc0000" clip-path="url(#id_0)" d="M292.0 300.0L153.0 300.0L153.0 138.0C153.0 136.89543 153.89543 136.0 155.0 136.0L290.0 136.0C291.10458 136.0 292.0 136.89543 292.0 138.0Z" fill-rule="nonzero"/><path stroke="#000000" stroke-width="2.0" stroke-linecap="butt" stroke-opacity="0.0" clip-path="url(#id_0)" d="M507.0 300.0L368.0 300.0L368.0 243.0C368.0 241.89543 368.89542 241.0 370.0 241.0L505.0 241.0C506.10458 241.0 507.0 241.89543 507.0 243.0Z" fill-rule="nonzero"/><path fill="#cc0000" clip-path="url(#id_0)" d="M507.0 300.0L368.0 300.0L368.0 243.0C368.0 241.89543 368.89542 241.0 370.0 241.0L505.0 241.0C506.10458 241.0 507.0 241.89543 507.0 243.0Z" fill-rule="nonzero"/><path stroke="#cc0000" stroke-width="3.0" stroke-linejoin="round" stroke-linecap="round" d="M214.96875 144.21825L214.96875 145.1245L214.76562 145.1245Q213.5 145.15575 212.75 145.89012Q212.0 146.60887 211.875 147.92137Q212.5625 147.15575 213.71875 147.15575Q214.82812 147.15575 215.5 147.937Q216.17188 148.71825 216.17188 149.96825Q216.17188 151.28075 215.45312 152.07762Q214.73438 152.8745 213.51562 152.8745Q212.29688 152.8745 211.53125 151.937Q210.78125 150.98387 210.78125 149.4995L210.78125 149.09325Q210.78125 146.73387 211.78125 145.48387Q212.78125 144.23387 214.76562 144.21825L214.96875 144.21825ZM213.54688 148.062Q212.98438 148.062 212.51562 148.39012Q212.04688 148.71825 211.85938 149.23387L211.85938 149.6245Q211.85938 150.687 212.32812 151.32762Q212.8125 151.96825 213.51562 151.96825Q214.25 151.96825 214.67188 151.437Q215.09375 150.89012 215.09375 150.01512Q215.09375 149.14012 214.67188 148.60887Q214.25 148.062 213.54688 148.062ZM217.84375 152.187Q217.84375 151.90575 218.0 151.71825Q218.17188 151.53075 218.5 151.53075Q218.84375 151.53075 219.01562 151.71825Q219.1875 151.90575 219.1875 152.187Q219.1875 152.45262 219.01562 152.64012Q218.84375 152.812 218.5 152.812Q218.17188 152.812 218.0 152.64012Q217.84375 152.45262 217.84375 152.187ZM224.26562 152.7495L223.1875 152.7495L223.1875 145.53075L221.0 146.32762L221.0 145.34325L224.10938 144.17137L224.26562 144.17137L224.26562 152.7495ZM233.29688 152.7495L227.70312 152.7495L227.70312 151.96825L230.65625 148.687Q231.3125 147.937 231.5625 147.48387Q231.8125 147.01512 231.8125 146.51512Q231.8125 145.84325 231.40625 145.42137Q231.01562 144.98387 230.32812 144.98387Q229.53125 144.98387 229.07812 145.45262Q228.625 145.90575 228.625 146.73387L227.54688 146.73387Q227.54688 145.54637 228.29688 144.82762Q229.0625 144.09325 230.32812 144.09325Q231.53125 144.09325 232.21875 144.71825Q232.90625 145.34325 232.90625 146.39012Q232.90625 147.64012 231.29688 149.39012L229.01562 151.85887L233.29688 151.85887L233.29688 152.7495Z" fill-rule="nonzero"/><path fill="#ffffff" d="M214.96875 144.21825L214.96875 145.1245L214.76562 145.1245Q213.5 145.15575 212.75 145.89012Q212.0 146.60887 211.875 147.92137Q212.5625 147.15575 213.71875 147.15575Q214.82812 147.15575 215.5 147.937Q216.17188 148.71825 216.17188 149.96825Q216.17188 151.28075 215.45312 152.07762Q214.73438 152.8745 213.51562 152.8745Q212.29688 152.8745 211.53125 151.937Q210.78125 150.98387 210.78125 149.4995L210.78125 149.09325Q210.78125 146.73387 211.78125 145.48387Q212.78125 144.23387 214.76562 144.21825L214.96875 144.21825ZM213.54688 148.062Q212.98438 148.062 212.51562 148.39012Q212.04688 148.71825 211.85938 149.23387L211.85938 149.6245Q211.85938 150.687 212.32812 151.32762Q212.8125 151.96825 213.51562 151.96825Q214.25 151.96825 214.67188 151.437Q215.09375 150.89012 215.09375 150.01512Q215.09375 149.14012 214.67188 148.60887Q214.25 148.062 213.54688 148.062ZM217.84375 152.187Q217.84375 151.90575 218.0 151.71825Q218.17188 151.53075 218.5 151.53075Q218.84375 151.53075 219.01562 151.71825Q219.1875 151.90575 219.1875 152.187Q219.1875 152.45262 219.01562 152.64012Q218.84375 152.812 218.5 152.812Q218.17188 152.812 218.0 152.64012Q217.84375 152.45262 217.84375 152.187ZM224.26562 152.7495L223.1875 152.7495L223.1875 145.53075L221.0 146.32762L221.0 145.34325L224.10938 144.17137L224.26562 144.17137L224.26562 152.7495ZM233.29688 152.7495L227.70312 152.7495L227.70312 151.96825L230.65625 148.687Q231.3125 147.937 231.5625 147.48387Q231.8125 147.01512 231.8125 146.51512Q231.8125 145.84325 231.40625 145.42137Q231.01562 144.98387 230.32812 144.98387Q229.53125 144.98387 229.07812 145.45262Q228.625 145.90575 228.625 146.73387L227.54688 146.73387Q227.54688 145.54637 228.29688 144.82762Q229.0625 144.09325 230.32812 144.09325Q231.53125 144.09325 232.21875 144.71825Q232.90625 145.34325 232.90625 146.39012Q232.90625 147.64012 231.29688 149.39012L229.01562 151.85887L233.29688 151.85887L233.29688 152.7495Z" fill-rule="nonzero"/><path stroke="#cc0000" stroke-width="3.0" stroke-linejoin="round" stroke-linecap="round" d="M431.29688 257.57825L425.70312 257.57825L425.70312 256.797L428.65625 253.51575Q429.3125 252.76575 429.5625 252.31262Q429.8125 251.84387 429.8125 251.34387Q429.8125 250.672 429.40625 250.25012Q429.01562 249.81262 428.32812 249.81262Q427.53125 249.81262 427.07812 250.28137Q426.625 250.7345 426.625 251.56262L425.54688 251.56262Q425.54688 250.37512 426.29688 249.65637Q427.0625 248.922 428.32812 248.922Q429.53125 248.922 430.21875 249.547Q430.90625 250.172 430.90625 251.21887Q430.90625 252.46887 429.29688 254.21887L427.01562 256.68762L431.29688 256.68762L431.29688 257.57825ZM432.84375 257.01575Q432.84375 256.7345 433.0 256.547Q433.17188 256.3595 433.5 256.3595Q433.84375 256.3595 434.01562 256.547Q434.1875 256.7345 434.1875 257.01575Q434.1875 257.28137 434.01562 257.46887Q433.84375 257.64075 433.5 257.64075Q433.17188 257.64075 433.0 257.46887Q432.84375 257.28137 432.84375 257.01575ZM441.29688 257.57825L435.70312 257.57825L435.70312 256.797L438.65625 253.51575Q439.3125 252.76575 439.5625 252.31262Q439.8125 251.84387 439.8125 251.34387Q439.8125 250.672 439.40625 250.25012Q439.01562 249.81262 438.32812 249.81262Q437.53125 249.81262 437.07812 250.28137Q436.625 250.7345 436.625 251.56262L435.54688 251.56262Q435.54688 250.37512 436.29688 249.65637Q437.0625 248.922 438.32812 248.922Q439.53125 248.922 440.21875 249.547Q440.90625 250.172 440.90625 251.21887Q440.90625 252.46887 439.29688 254.21887L437.01562 256.68762L441.29688 256.68762L441.29688 257.57825ZM448.29688 257.57825L442.70312 257.57825L442.70312 256.797L445.65625 253.51575Q446.3125 252.76575 446.5625 252.31262Q446.8125 251.84387 446.8125 251.34387Q446.8125 250.672 446.40625 250.25012Q446.01562 249.81262 445.32812 249.81262Q444.53125 249.81262 444.07812 250.28137Q443.625 250.7345 443.625 251.56262L442.54688 251.56262Q442.54688 250.37512 443.29688 249.65637Q444.0625 248.922 445.32812 248.922Q446.53125 248.922 447.21875 249.547Q447.90625 250.172 447.90625 251.21887Q447.90625 252.46887 446.29688 254.21887L444.01562 256.68762L448.29688 256.68762L448.29688 257.57825Z" fill-rule="nonzero"/><path fill="#ffffff" d="M431.29688 257.57825L425.70312 257.57825L425.70312 256.797L428.65625 253.51575Q429.3125 252.76575 429.5625 252.31262Q429.8125 251.84387 429.8125 251.34387Q429.8125 250.672 429.40625 250.25012Q429.01562 249.81262 428.32812 249.81262Q427.53125 249.81262 427.07812 250.28137Q426.625 250.7345 426.625 251.56262L425.54688 251.56262Q425.54688 250.37512 426.29688 249.65637Q427.0625 248.922 428.32812 248.922Q429.53125 248.922 430.21875 249.547Q430.90625 250.172 430.90625 251.21887Q430.90625 252.46887 429.29688 254.21887L427.01562 256.68762L431.29688 256.68762L431.29688 257.57825ZM432.84375 257.01575Q432.84375 256.7345 433.0 256.547Q433.17188 256.3595 433.5 256.3595Q433.84375 256.3595 434.01562 256.547Q434.1875 256.7345 434.1875 257.01575Q434.1875 257.28137 434.01562 257.46887Q433.84375 257.64075 433.5 257.64075Q433.17188 257.64075 433.0 257.46887Q432.84375 257.28137 432.84375 257.01575ZM441.29688 257.57825L435.70312 257.57825L435.70312 256.797L438.65625 253.51575Q439.3125 252.76575 439.5625 252.31262Q439.8125 251.84387 439.8125 251.34387Q439.8125 250.672 439.40625 250.25012Q439.01562 249.81262 438.32812 249.81262Q437.53125 249.81262 437.07812 250.28137Q436.625 250.7345 436.625 251.56262L435.54688 251.56262Q435.54688 250.37512 436.29688 249.65637Q437.0625 248.922 438.32812 248.922Q439.53125 248.922 440.21875 249.547Q440.90625 250.172 440.90625 251.21887Q440.90625 252.46887 439.29688 254.21887L437.01562 256.68762L441.29688 256.68762L441.29688 257.57825ZM448.29688 257.57825L442.70312 257.57825L442.70312 256.797L445.65625 253.51575Q446.3125 252.76575 446.5625 252.31262Q446.8125 251.84387 446.8125 251.34387Q446.8125 250.672 446.40625 250.25012Q446.01562 249.81262 445.32812 249.81262Q444.53125 249.81262 444.07812 250.28137Q443.625 250.7345 443.625 251.56262L442.54688 251.56262Q442.54688 250.37512 443.29688 249.65637Q444.0625 248.922 445.32812 248.922Q446.53125 248.922 447.21875 249.547Q447.90625 250.172 447.90625 251.21887Q447.90625 252.46887 446.29688 254.21887L444.01562 256.68762L448.29688 256.68762L448.29688 257.57825Z" fill-rule="nonzero"/><path fill="#000000" d="M286.60938 349.45L286.60938 341.8719L283.78125 341.8719L283.78125 340.85626L290.59375 340.85626L290.59375 341.8719L287.75 341.8719L287.75 349.45L286.60938 349.45ZM295.54688 347.45L296.64062 347.575Q296.39062 348.52814 295.6875 349.0594Q294.98438 349.59064 293.90625 349.59064Q292.54688 349.59064 291.73438 348.7469Q290.9375 347.90314 290.9375 346.3875Q290.9375 344.825 291.75 343.96564Q292.5625 343.09064 293.84375 343.09064Q295.09375 343.09064 295.875 343.9344Q296.67188 344.77814 296.67188 346.325Q296.67188 346.41876 296.67188 346.60626L292.03125 346.60626Q292.09375 347.6375 292.60938 348.1844Q293.125 348.71564 293.90625 348.71564Q294.48438 348.71564 294.89062 348.41876Q295.3125 348.10626 295.54688 347.45ZM292.09375 345.7469L295.5625 345.7469Q295.5 344.95 295.17188 344.5594Q294.65625 343.95 293.85938 343.95Q293.125 343.95 292.625 344.4344Q292.14062 344.91876 292.09375 345.7469ZM297.875 347.59064L298.90625 347.4344Q299.0 348.0594 299.39062 348.3875Q299.79688 348.71564 300.53125 348.71564Q301.25 348.71564 301.59375 348.4344Q301.95312 348.1375 301.95312 347.73126Q301.95312 347.3719 301.64062 347.16876Q301.42188 347.02814 300.5625 346.8094Q299.40625 346.5125 298.95312 346.3094Q298.51562 346.09064 298.28125 345.71564Q298.04688 345.34064 298.04688 344.8719Q298.04688 344.46564 298.23438 344.10626Q298.42188 343.7469 298.75 343.5125Q299.0 343.34064 299.42188 343.21564Q299.84375 343.09064 300.34375 343.09064Q301.0625 343.09064 301.60938 343.3094Q302.17188 343.5125 302.4375 343.8719Q302.70312 344.23126 302.79688 344.825L301.76562 344.96564Q301.70312 344.4969 301.35938 344.23126Q301.03125 343.95 300.40625 343.95Q299.6875 343.95 299.375 344.2Q299.0625 344.4344 299.0625 344.7625Q299.0625 344.96564 299.1875 345.1219Q299.32812 345.29376 299.59375 345.40314Q299.75 345.46564 300.53125 345.66876Q301.65625 345.98126 302.09375 346.16876Q302.53125 346.35626 302.78125 346.71564Q303.03125 347.075 303.03125 347.6219Q303.03125 348.15314 302.71875 348.6219Q302.42188 349.075 301.84375 349.34064Q301.26562 349.59064 300.53125 349.59064Q299.3125 349.59064 298.67188 349.09064Q298.04688 348.575 297.875 347.59064ZM307.59375 348.5125L307.75 349.4344Q307.29688 349.52814 306.95312 349.52814Q306.375 349.52814 306.0625 349.35626Q305.75 349.16876 305.60938 348.8719Q305.48438 348.575 305.48438 347.6219L305.48438 344.04376L304.71875 344.04376L304.71875 343.23126L305.48438 343.23126L305.48438 341.6844L306.53125 341.0594L306.53125 343.23126L307.59375 343.23126L307.59375 344.04376L306.53125 344.04376L306.53125 347.6844Q306.53125 348.1375 306.57812 348.2625Q306.64062 348.3875 306.76562 348.46564Q306.89062 348.54376 307.125 348.54376Q307.3125 348.54376 307.59375 348.5125ZM311.42188 349.45L311.42188 340.85626L314.67188 340.85626Q315.51562 340.85626 315.96875 340.9344Q316.60938 341.04376 317.03125 341.34064Q317.46875 341.6375 317.71875 342.16876Q317.98438 342.7 317.98438 343.34064Q317.98438 344.4344 317.28125 345.2Q316.59375 345.95 314.76562 345.95L312.5625 345.95L312.5625 349.45L311.42188 349.45ZM312.5625 344.95L314.78125 344.95Q315.89062 344.95 316.34375 344.54376Q316.8125 344.1219 316.8125 343.3719Q316.8125 342.84064 316.53125 342.46564Q316.26562 342.075 315.82812 341.95Q315.53125 341.8719 314.76562 341.8719L312.5625 341.8719L312.5625 344.95ZM323.35938 348.6844Q322.76562 349.1844 322.21875 349.3875Q321.6875 349.59064 321.0625 349.59064Q320.03125 349.59064 319.48438 349.09064Q318.9375 348.59064 318.9375 347.8094Q318.9375 347.35626 319.14062 346.98126Q319.34375 346.59064 319.6875 346.3719Q320.03125 346.1375 320.45312 346.02814Q320.75 345.9344 321.39062 345.85626Q322.65625 345.71564 323.26562 345.4969Q323.26562 345.27814 323.26562 345.23126Q323.26562 344.575 322.96875 344.3094Q322.5625 343.96564 321.76562 343.96564Q321.03125 343.96564 320.67188 344.23126Q320.3125 344.48126 320.14062 345.1375L319.10938 344.9969Q319.25 344.34064 319.57812 343.9344Q319.90625 343.52814 320.51562 343.3094Q321.125 343.09064 321.92188 343.09064Q322.71875 343.09064 323.21875 343.27814Q323.71875 343.46564 323.95312 343.7469Q324.1875 344.02814 324.28125 344.46564Q324.32812 344.73126 324.32812 345.4344L324.32812 346.84064Q324.32812 348.3094 324.39062 348.7Q324.46875 349.09064 324.67188 349.45L323.5625 349.45Q323.40625 349.1219 323.35938 348.6844ZM323.26562 346.325Q322.6875 346.5594 321.54688 346.73126Q320.89062 346.825 320.625 346.95Q320.35938 347.0594 320.20312 347.27814Q320.0625 347.4969 320.0625 347.77814Q320.0625 348.2 320.375 348.48126Q320.70312 348.7625 321.3125 348.7625Q321.92188 348.7625 322.39062 348.4969Q322.875 348.23126 323.09375 347.7625Q323.26562 347.40314 323.26562 346.71564L323.26562 346.325ZM326.28125 349.45L326.28125 343.23126L327.23438 343.23126L327.23438 344.16876Q327.59375 343.5125 327.89062 343.3094Q328.20312 343.09064 328.57812 343.09064Q329.10938 343.09064 329.65625 343.41876L329.29688 344.40314Q328.90625 344.16876 328.53125 344.16876Q328.17188 344.16876 327.89062 344.3875Q327.625 344.59064 327.51562 344.96564Q327.32812 345.52814 327.32812 346.1844L327.32812 349.45L326.28125 349.45ZM334.35938 348.6844Q333.76562 349.1844 333.21875 349.3875Q332.6875 349.59064 332.0625 349.59064Q331.03125 349.59064 330.48438 349.09064Q329.9375 348.59064 329.9375 347.8094Q329.9375 347.35626 330.14062 346.98126Q330.34375 346.59064 330.6875 346.3719Q331.03125 346.1375 331.45312 346.02814Q331.75 345.9344 332.39062 345.85626Q333.65625 345.71564 334.26562 345.4969Q334.26562 345.27814 334.26562 345.23126Q334.26562 344.575 333.96875 344.3094Q333.5625 343.96564 332.76562 343.96564Q332.03125 343.96564 331.67188 344.23126Q331.3125 344.48126 331.14062 345.1375L330.10938 344.9969Q330.25 344.34064 330.57812 343.9344Q330.90625 343.52814 331.51562 343.3094Q332.125 343.09064 332.92188 343.09064Q333.71875 343.09064 334.21875 343.27814Q334.71875 343.46564 334.95312 343.7469Q335.1875 344.02814 335.28125 344.46564Q335.32812 344.73126 335.32812 345.4344L335.32812 346.84064Q335.32812 348.3094 335.39062 348.7Q335.46875 349.09064 335.67188 349.45L334.5625 349.45Q334.40625 349.1219 334.35938 348.6844ZM334.26562 346.325Q333.6875 346.5594 332.54688 346.73126Q331.89062 346.825 331.625 346.95Q331.35938 347.0594 331.20312 347.27814Q331.0625 347.4969 331.0625 347.77814Q331.0625 348.2 331.375 348.48126Q331.70312 348.7625 332.3125 348.7625Q332.92188 348.7625 333.39062 348.4969Q333.875 348.23126 334.09375 347.7625Q334.26562 347.40314 334.26562 346.71564L334.26562 346.325ZM337.29688 349.45L337.29688 343.23126L338.23438 343.23126L338.23438 344.10626Q338.53125 343.6375 339.01562 343.3719Q339.5 343.09064 340.125 343.09064Q340.8125 343.09064 341.25 343.3719Q341.70312 343.65314 341.875 344.16876Q342.625 343.09064 343.79688 343.09064Q344.73438 343.09064 345.21875 343.60626Q345.71875 344.10626 345.71875 345.1844L345.71875 349.45L344.67188 349.45L344.67188 345.52814Q344.67188 344.90314 344.5625 344.6219Q344.46875 344.34064 344.20312 344.16876Q343.9375 343.9969 343.5625 343.9969Q342.90625 343.9969 342.46875 344.4344Q342.04688 344.8719 342.04688 345.84064L342.04688 349.45L340.98438 349.45L340.98438 345.40314Q340.98438 344.7 340.71875 344.35626Q340.46875 343.9969 339.89062 343.9969Q339.4375 343.9969 339.0625 344.23126Q338.6875 344.46564 338.51562 344.91876Q338.34375 345.3719 338.34375 346.21564L338.34375 349.45L337.29688 349.45ZM352.54688 347.45L353.64062 347.575Q353.39062 348.52814 352.6875 349.0594Q351.98438 349.59064 350.90625 349.59064Q349.54688 349.59064 348.73438 348.7469Q347.9375 347.90314 347.9375 346.3875Q347.9375 344.825 348.75 343.96564Q349.5625 343.09064 350.84375 343.09064Q352.09375 343.09064 352.875 343.9344Q353.67188 344.77814 353.67188 346.325Q353.67188 346.41876 353.67188 346.60626L349.03125 346.60626Q349.09375 347.6375 349.60938 348.1844Q350.125 348.71564 350.90625 348.71564Q351.48438 348.71564 351.89062 348.41876Q352.3125 348.10626 352.54688 347.45ZM349.09375 345.7469L352.5625 345.7469Q352.5 344.95 352.17188 344.5594Q351.65625 343.95 350.85938 343.95Q350.125 343.95 349.625 344.4344Q349.14062 344.91876 349.09375 345.7469ZM357.59375 348.5125L357.75 349.4344Q357.29688 349.52814 356.95312 349.52814Q356.375 349.52814 356.0625 349.35626Q355.75 349.16876 355.60938 348.8719Q355.48438 348.575 355.48438 347.6219L355.48438 344.04376L354.71875 344.04376L354.71875 343.23126L355.48438 343.23126L355.48438 341.6844L356.53125 341.0594L356.53125 343.23126L357.59375 343.23126L357.59375 344.04376L356.53125 344.04376L356.53125 347.6844Q356.53125 348.1375 356.57812 348.2625Q356.64062 348.3875 356.76562 348.46564Q356.89062 348.54376 357.125 348.54376Q357.3125 348.54376 357.59375 348.5125ZM362.54688 347.45L363.64062 347.575Q363.39062 348.52814 362.6875 349.0594Q361.98438 349.59064 360.90625 349.59064Q359.54688 349.59064 358.73438 348.7469Q357.9375 347.90314 357.9375 346.3875Q357.9375 344.825 358.75 343.96564Q359.5625 343.09064 360.84375 343.09064Q362.09375 343.09064 362.875 343.9344Q363.67188 344.77814 363.67188 346.325Q363.67188 346.41876 363.67188 346.60626L359.03125 346.60626Q359.09375 347.6375 359.60938 348.1844Q360.125 348.71564 360.90625 348.71564Q361.48438 348.71564 361.89062 348.41876Q362.3125 348.10626 362.54688 347.45ZM359.09375 345.7469L362.5625 345.7469Q362.5 344.95 362.17188 344.5594Q361.65625 343.95 360.85938 343.95Q360.125 343.95 359.625 344.4344Q359.14062 344.91876 359.09375 345.7469ZM365.28125 349.45L365.28125 343.23126L366.23438 343.23126L366.23438 344.16876Q366.59375 343.5125 366.89062 343.3094Q367.20312 343.09064 367.57812 343.09064Q368.10938 343.09064 368.65625 343.41876L368.29688 344.40314Q367.90625 344.16876 367.53125 344.16876Q367.17188 344.16876 366.89062 344.3875Q366.625 344.59064 366.51562 344.96564Q366.32812 345.52814 366.32812 346.1844L366.32812 349.45L365.28125 349.45ZM368.875 347.59064L369.90625 347.4344Q370.0 348.0594 370.39062 348.3875Q370.79688 348.71564 371.53125 348.71564Q372.25 348.71564 372.59375 348.4344Q372.95312 348.1375 372.95312 347.73126Q372.95312 347.3719 372.64062 347.16876Q372.42188 347.02814 371.5625 346.8094Q370.40625 346.5125 369.95312 346.3094Q369.51562 346.09064 369.28125 345.71564Q369.04688 345.34064 369.04688 344.8719Q369.04688 344.46564 369.23438 344.10626Q369.42188 343.7469 369.75 343.5125Q370.0 343.34064 370.42188 343.21564Q370.84375 343.09064 371.34375 343.09064Q372.0625 343.09064 372.60938 343.3094Q373.17188 343.5125 373.4375 343.8719Q373.70312 344.23126 373.79688 344.825L372.76562 344.96564Q372.70312 344.4969 372.35938 344.23126Q372.03125 343.95 371.40625 343.95Q370.6875 343.95 370.375 344.2Q370.0625 344.4344 370.0625 344.7625Q370.0625 344.96564 370.1875 345.1219Q370.32812 345.29376 370.59375 345.40314Q370.75 345.46564 371.53125 345.66876Q372.65625 345.98126 373.09375 346.16876Q373.53125 346.35626 373.78125 346.71564Q374.03125 347.075 374.03125 347.6219Q374.03125 348.15314 373.71875 348.6219Q373.42188 349.075 372.84375 349.34064Q372.26562 349.59064 371.53125 349.59064Q370.3125 349.59064 369.67188 349.09064Q369.04688 348.575 368.875 347.59064Z" fill-rule="nonzero"/><path fill="#000000" d="M29.550013 239.82396L21.971888 239.82396L21.971888 242.65208L20.956263 242.65208L20.956263 235.83958L21.971888 235.83958L21.971888 238.68333L29.550013 238.68333L29.550013 239.82396ZM22.175013 235.13646L20.956263 235.13646L20.956263 234.07396L22.175013 234.07396L22.175013 235.13646ZM29.550013 235.13646L23.331263 235.13646L23.331263 234.07396L29.550013 234.07396L29.550013 235.13646ZM29.550013 232.13646L23.331263 232.13646L23.331263 231.19896L24.206263 231.19896Q23.737513 230.90208 23.471888 230.41771Q23.190638 229.93333 23.190638 229.30833Q23.190638 228.62083 23.471888 228.18333Q23.753138 227.73021 24.268763 227.55833Q23.190638 226.80833 23.190638 225.63646Q23.190638 224.69896 23.706263 224.21458Q24.206263 223.71458 25.284388 223.71458L29.550013 223.71458L29.550013 224.76146L25.628138 224.76146Q25.003138 224.76146 24.721888 224.87083Q24.440638 224.96458 24.268763 225.23021Q24.096888 225.49583 24.096888 225.87083Q24.096888 226.52708 24.534388 226.96458Q24.971888 227.38646 25.940638 227.38646L29.550013 227.38646L29.550013 228.44896L25.503138 228.44896Q24.800013 228.44896 24.456263 228.71458Q24.096888 228.96458 24.096888 229.54271Q24.096888 229.99583 24.331263 230.37083Q24.565638 230.74583 25.018763 230.91771Q25.471888 231.08958 26.315638 231.08958L29.550013 231.08958L29.550013 232.13646ZM27.550013 216.88646L27.675013 215.79271Q28.628138 216.04271 29.159388 216.74583Q29.690638 217.44896 29.690638 218.52708Q29.690638 219.88646 28.846888 220.69896Q28.003138 221.49583 26.487513 221.49583Q24.925013 221.49583 24.065638 220.68333Q23.190638 219.87083 23.190638 218.58958Q23.190638 217.33958 24.034388 216.55833Q24.878138 215.76146 26.425013 215.76146Q26.518763 215.76146 26.706263 215.76146L26.706263 220.40208Q27.737513 220.33958 28.284388 219.82396Q28.815638 219.30833 28.815638 218.52708Q28.815638 217.94896 28.518763 217.54271Q28.206263 217.12083 27.550013 216.88646ZM25.846888 220.33958L25.846888 216.87083Q25.050013 216.93333 24.659388 217.26146Q24.050013 217.77708 24.050013 218.57396Q24.050013 219.30833 24.534388 219.80833Q25.018763 220.29271 25.846888 220.33958ZM32.08126 209.12083Q30.971888 209.99583 29.503138 210.60521Q28.018763 211.19896 26.440638 211.19896Q25.050013 211.19896 23.768763 210.76146Q22.284388 210.23021 20.815638 209.12083L20.815638 208.37083Q22.034388 209.07396 22.550013 209.30833Q23.362513 209.66771 24.237513 209.87083Q25.331263 210.12083 26.440638 210.12083Q29.268763 210.12083 32.08126 208.37083L32.08126 209.12083ZM27.690638 207.55833L27.534388 206.52708Q28.159388 206.43333 28.487513 206.04271Q28.815638 205.63646 28.815638 204.90208Q28.815638 204.18333 28.534388 203.83958Q28.237513 203.48021 27.831263 203.48021Q27.471888 203.48021 27.268763 203.79271Q27.128138 204.01146 26.909388 204.87083Q26.612513 206.02708 26.409388 206.48021Q26.190638 206.91771 25.815638 207.15208Q25.440638 207.38646 24.971888 207.38646Q24.565638 207.38646 24.206263 207.19896Q23.846888 207.01146 23.612513 206.68333Q23.440638 206.43333 23.315638 206.01146Q23.190638 205.58958 23.190638 205.08958Q23.190638 204.37083 23.409388 203.82396Q23.612513 203.26146 23.971888 202.99583Q24.331263 202.73021 24.925013 202.63646L25.065638 203.66771Q24.596888 203.73021 24.331263 204.07396Q24.050013 204.40208 24.050013 205.02708Q24.050013 205.74583 24.300013 206.05833Q24.534388 206.37083 24.862513 206.37083Q25.065638 206.37083 25.221888 206.24583Q25.393763 206.10521 25.503138 205.83958Q25.565638 205.68333 25.768763 204.90208Q26.081263 203.77708 26.268763 203.33958Q26.456263 202.90208 26.815638 202.65208Q27.175013 202.40208 27.721888 202.40208Q28.253138 202.40208 28.721888 202.71458Q29.175013 203.01146 29.440638 203.58958Q29.690638 204.16771 29.690638 204.90208Q29.690638 206.12083 29.190638 206.76146Q28.675013 207.38646 27.690638 207.55833ZM27.550013 195.88646L27.675013 194.79271Q28.628138 195.04271 29.159388 195.74583Q29.690638 196.44896 29.690638 197.52708Q29.690638 198.88646 28.846888 199.69896Q28.003138 200.49583 26.487513 200.49583Q24.925013 200.49583 24.065638 199.68333Q23.190638 198.87083 23.190638 197.58958Q23.190638 196.33958 24.034388 195.55833Q24.878138 194.76146 26.425013 194.76146Q26.518763 194.76146 26.706263 194.76146L26.706263 199.40208Q27.737513 199.33958 28.284388 198.82396Q28.815638 198.30833 28.815638 197.52708Q28.815638 196.94896 28.518763 196.54271Q28.206263 196.12083 27.550013 195.88646ZM25.846888 199.33958L25.846888 195.87083Q25.050013 195.93333 24.659388 196.26146Q24.050013 196.77708 24.050013 197.57396Q24.050013 198.30833 24.534388 198.80833Q25.018763 199.29271 25.846888 199.33958ZM27.268763 189.07396L27.409388 188.04271Q28.471888 188.21458 29.081263 188.91771Q29.690638 189.62083 29.690638 190.63646Q29.690638 191.91771 28.862513 192.69896Q28.018763 193.46458 26.456263 193.46458Q25.456263 193.46458 24.706263 193.13646Q23.940638 192.79271 23.565638 192.12083Q23.190638 191.43333 23.190638 190.62083Q23.190638 189.62083 23.706263 188.98021Q24.206263 188.32396 25.159388 188.13646L25.315638 189.16771Q24.690638 189.30833 24.378138 189.68333Q24.050013 190.05833 24.050013 190.58958Q24.050013 191.38646 24.628138 191.88646Q25.190638 192.38646 26.425013 192.38646Q27.690638 192.38646 28.253138 191.90208Q28.815638 191.41771 28.815638 190.65208Q28.815638 190.02708 28.440638 189.62083Q28.065638 189.19896 27.268763 189.07396ZM26.440638 187.52708Q24.706263 187.52708 23.878138 186.57396Q23.190638 185.77708 23.190638 184.62083Q23.190638 183.33958 24.034388 182.52708Q24.862513 181.69896 26.346888 181.69896Q27.550013 181.69896 28.237513 182.05833Q28.925013 182.41771 29.315638 183.12083Q29.690638 183.80833 29.690638 184.62083Q29.690638 185.91771 28.862513 186.73021Q28.018763 187.52708 26.440638 187.52708ZM26.440638 186.44896Q27.628138 186.44896 28.221888 185.93333Q28.815638 185.40208 28.815638 184.62083Q28.815638 183.82396 28.221888 183.30833Q27.628138 182.79271 26.409388 182.79271Q25.253138 182.79271 24.659388 183.32396Q24.065638 183.83958 24.065638 184.62083Q24.065638 185.40208 24.659388 185.93333Q25.237513 186.44896 26.440638 186.44896ZM29.550013 180.13646L23.331263 180.13646L23.331263 179.19896L24.206263 179.19896Q23.190638 178.51146 23.190638 177.21458Q23.190638 176.65208 23.393763 176.18333Q23.596888 175.69896 23.925013 175.46458Q24.253138 175.23021 24.690638 175.13646Q24.987513 175.08958 25.721888 175.08958L29.550013 175.08958L29.550013 176.13646L25.768763 176.13646Q25.112513 176.13646 24.800013 176.26146Q24.487513 176.38646 24.300013 176.69896Q24.096888 177.01146 24.096888 177.43333Q24.096888 178.10521 24.534388 178.60521Q24.956263 179.08958 26.143763 179.08958L29.550013 179.08958L29.550013 180.13646ZM29.550013 169.10521L28.768763 169.10521Q29.690638 169.69896 29.690638 170.83958Q29.690638 171.58958 29.284388 172.21458Q28.862513 172.83958 28.128138 173.18333Q27.393763 173.52708 26.440638 173.52708Q25.518763 173.52708 24.753138 173.21458Q23.987513 172.90208 23.596888 172.27708Q23.190638 171.65208 23.190638 170.88646Q23.190638 170.32396 23.425013 169.88646Q23.659388 169.44896 24.034388 169.16771L20.956263 169.16771L20.956263 168.12083L29.550013 168.12083L29.550013 169.10521ZM26.440638 172.43333Q27.643763 172.43333 28.237513 171.93333Q28.815638 171.43333 28.815638 170.74583Q28.815638 170.05833 28.253138 169.57396Q27.690638 169.08958 26.534388 169.08958Q25.253138 169.08958 24.659388 169.58958Q24.065638 170.07396 24.065638 170.79271Q24.065638 171.49583 24.643763 171.96458Q25.206263 172.43333 26.440638 172.43333ZM27.690638 166.55833L27.534388 165.52708Q28.159388 165.43333 28.487513 165.04271Q28.815638 164.63646 28.815638 163.90208Q28.815638 163.18333 28.534388 162.83958Q28.237513 162.48021 27.831263 162.48021Q27.471888 162.48021 27.268763 162.79271Q27.128138 163.01146 26.909388 163.87083Q26.612513 165.02708 26.409388 165.48021Q26.190638 165.91771 25.815638 166.15208Q25.440638 166.38646 24.971888 166.38646Q24.565638 166.38646 24.206263 166.19896Q23.846888 166.01146 23.612513 165.68333Q23.440638 165.43333 23.315638 165.01146Q23.190638 164.58958 23.190638 164.08958Q23.190638 163.37083 23.409388 162.82396Q23.612513 162.26146 23.971888 161.99583Q24.331263 161.73021 24.925013 161.63646L25.065638 162.66771Q24.596888 162.73021 24.331263 163.07396Q24.050013 163.40208 24.050013 164.02708Q24.050013 164.74583 24.300013 165.05833Q24.534388 165.37083 24.862513 165.37083Q25.065638 165.37083 25.221888 165.24583Q25.393763 165.10521 25.503138 164.83958Q25.565638 164.68333 25.768763 163.90208Q26.081263 162.77708 26.268763 162.33958Q26.456263 161.90208 26.815638 161.65208Q27.175013 161.40208 27.721888 161.40208Q28.253138 161.40208 28.721888 161.71458Q29.175013 162.01146 29.440638 162.58958Q29.690638 163.16771 29.690638 163.90208Q29.690638 165.12083 29.190638 165.76146Q28.675013 166.38646 27.690638 166.55833ZM32.08126 158.44896L32.08126 159.19896Q29.268763 157.44896 26.440638 157.44896Q25.346888 157.44896 24.253138 157.69896Q23.378138 157.90208 22.565638 158.26146Q22.050013 158.49583 20.815638 159.19896L20.815638 158.44896Q22.284388 157.35521 23.768763 156.82396Q25.050013 156.37083 26.440638 156.37083Q28.018763 156.37083 29.503138 156.98021Q30.971888 157.58958 32.08126 158.44896Z" fill-rule="nonzero"/><path fill="#000000" d="M65.05 300.21564Q65.05 298.6844 65.3625 297.7625Q65.675 296.825 66.28438 296.325Q66.90938 295.825 67.84688 295.825Q68.53438 295.825 69.05 296.10626Q69.58125 296.3875 69.925 296.91876Q70.26875 297.4344 70.45625 298.1844Q70.64375 298.9344 70.64375 300.21564Q70.64375 301.73126 70.33125 302.65314Q70.03438 303.575 69.40938 304.09064Q68.8 304.59064 67.84688 304.59064Q66.6125 304.59064 65.89375 303.7Q65.05 302.6375 65.05 300.21564ZM66.12813 300.21564Q66.12813 302.325 66.62813 303.02814Q67.12813 303.73126 67.84688 303.73126Q68.58125 303.73126 69.06563 303.02814Q69.56563 302.325 69.56563 300.21564Q69.56563 298.09064 69.06563 297.40314Q68.58125 296.7 67.83125 296.7Q67.1125 296.7 66.675 297.3094Q66.12813 298.09064 66.12813 300.21564Z" fill-rule="nonzero"/><path fill="#000000" d="M70.59688 249.67604L70.59688 250.69167L64.90938 250.69167Q64.90938 250.31667 65.03438 249.95729Q65.25313 249.37917 65.72188 248.81667Q66.20625 248.25417 67.1125 247.51979Q68.51875 246.36354 69.00313 245.69167Q69.50313 245.01979 69.50313 244.42604Q69.50313 243.80104 69.05 243.37917Q68.59688 242.94167 67.87813 242.94167Q67.1125 242.94167 66.65938 243.39479Q66.20625 243.84792 66.19063 244.66042L65.1125 244.55104Q65.22188 243.33229 65.94063 242.70729Q66.675 242.06667 67.90938 242.06667Q69.14375 242.06667 69.8625 242.75417Q70.58125 243.44167 70.58125 244.45729Q70.58125 244.97292 70.3625 245.47292Q70.15938 245.95729 69.65938 246.51979Q69.175 247.06667 68.05 248.01979Q67.09688 248.81667 66.81563 249.11354Q66.55 249.39479 66.37813 249.67604L70.59688 249.67604Z" fill-rule="nonzero"/><path fill="#000000" d="M68.425 196.93333L68.425 194.87083L64.70625 194.87083L64.70625 193.90208L68.62813 188.33958L69.4875 188.33958L69.4875 193.90208L70.64375 193.90208L70.64375 194.87083L69.4875 194.87083L69.4875 196.93333L68.425 196.93333ZM68.425 193.90208L68.425 190.04271L65.7375 193.90208L68.425 193.90208Z" fill-rule="nonzero"/><path fill="#000000" d="M70.51875 136.69063L69.47188 136.76875Q69.33125 136.14375 69.08125 135.8625Q68.64375 135.40938 68.01875 135.40938Q67.51875 135.40938 67.12813 135.69063Q66.64375 136.06563 66.34688 136.76875Q66.06563 137.45625 66.05 138.7375Q66.425 138.15938 66.97188 137.87813Q67.53438 137.59688 68.14375 137.59688Q69.19063 137.59688 69.925 138.37813Q70.675 139.15938 70.675 140.37813Q70.675 141.19063 70.31563 141.89375Q69.97188 142.58125 69.3625 142.95625Q68.75313 143.31563 67.9875 143.31563Q66.65938 143.31563 65.83125 142.34688Q65.00313 141.37813 65.00313 139.15938Q65.00313 136.65938 65.925 135.53438Q66.72188 134.55 68.08125 134.55Q69.09688 134.55 69.7375 135.12813Q70.39375 135.69063 70.51875 136.69063ZM66.22188 140.39375Q66.22188 140.94063 66.44063 141.44063Q66.675 141.925 67.08125 142.19063Q67.50313 142.45625 67.97188 142.45625Q68.62813 142.45625 69.1125 141.925Q69.59688 141.37813 69.59688 140.45625Q69.59688 139.56563 69.1125 139.05Q68.64375 138.53438 67.925 138.53438Q67.20625 138.53438 66.70625 139.05Q66.22188 139.56563 66.22188 140.39375Z" fill-rule="nonzero"/><path fill="#000000" d="M66.675 84.760414Q66.01875 84.510414 65.69063 84.072914Q65.37813 83.61979 65.37813 83.010414Q65.37813 82.072914 66.05 81.43229Q66.7375 80.791664 67.84688 80.791664Q68.97188 80.791664 69.65938 81.447914Q70.34688 82.104164 70.34688 83.041664Q70.34688 83.635414 70.03438 84.072914Q69.72188 84.510414 69.08125 84.760414Q69.87813 85.010414 70.28438 85.58854Q70.69063 86.166664 70.69063 86.96354Q70.69063 88.05729 69.90938 88.80729Q69.14375 89.55729 67.8625 89.55729Q66.59688 89.55729 65.81563 88.80729Q65.03438 88.05729 65.03438 86.93229Q65.03438 86.08854 65.45625 85.52604Q65.89375 84.96354 66.675 84.760414ZM66.45625 82.96354Q66.45625 83.572914 66.84688 83.96354Q67.25313 84.354164 67.87813 84.354164Q68.4875 84.354164 68.87813 83.979164Q69.26875 83.58854 69.26875 83.02604Q69.26875 82.447914 68.8625 82.05729Q68.45625 81.65104 67.8625 81.65104Q67.25313 81.65104 66.84688 82.041664Q66.45625 82.43229 66.45625 82.96354ZM66.12813 86.93229Q66.12813 87.385414 66.33125 87.80729Q66.55 88.229164 66.97188 88.46354Q67.39375 88.697914 67.87813 88.697914Q68.62813 88.697914 69.1125 88.21354Q69.6125 87.729164 69.6125 86.979164Q69.6125 86.21354 69.1125 85.71354Q68.6125 85.21354 67.84688 85.21354Q67.09688 85.21354 66.6125 85.71354Q66.12813 86.197914 66.12813 86.93229Z" fill-rule="nonzero"/><path fill="#000000" d="M155.7091 317.45L155.7091 308.85626L156.86536 308.85626L161.38098 315.60626L161.38098 308.85626L162.47473 308.85626L162.47473 317.45L161.30286 317.45L156.78723 310.7L156.78723 317.45L155.7091 317.45ZM164.19348 314.34064Q164.19348 312.60626 165.1466 311.77814Q165.94348 311.09064 167.09973 311.09064Q168.38098 311.09064 169.19348 311.9344Q170.0216 312.7625 170.0216 314.2469Q170.0216 315.45 169.66223 316.1375Q169.30286 316.825 168.59973 317.21564Q167.91223 317.59064 167.09973 317.59064Q165.80286 317.59064 164.99036 316.7625Q164.19348 315.91876 164.19348 314.34064ZM165.2716 314.34064Q165.2716 315.52814 165.78723 316.1219Q166.31848 316.71564 167.09973 316.71564Q167.8966 316.71564 168.41223 316.1219Q168.92786 315.52814 168.92786 314.3094Q168.92786 313.15314 168.3966 312.5594Q167.88098 311.96564 167.09973 311.96564Q166.31848 311.96564 165.78723 312.5594Q165.2716 313.1375 165.2716 314.34064ZM180.84973 314.4344L181.97473 314.73126Q181.61536 316.1219 180.69348 316.85626Q179.7716 317.59064 178.42786 317.59064Q177.03723 317.59064 176.16223 317.02814Q175.28723 316.46564 174.8341 315.40314Q174.38098 314.325 174.38098 313.09064Q174.38098 311.7469 174.8966 310.7469Q175.41223 309.7469 176.34973 309.23126Q177.30286 308.71564 178.44348 308.71564Q179.72473 308.71564 180.59973 309.3719Q181.49036 310.02814 181.8341 311.21564L180.7091 311.48126Q180.41223 310.54376 179.8341 310.1219Q179.2716 309.6844 178.41223 309.6844Q177.42786 309.6844 176.75598 310.16876Q176.09973 310.6375 175.81848 311.4344Q175.55286 312.23126 175.55286 313.09064Q175.55286 314.1844 175.86536 314.9969Q176.19348 315.8094 176.86536 316.21564Q177.53723 316.6219 178.3341 316.6219Q179.28723 316.6219 179.94348 316.075Q180.61536 315.52814 180.84973 314.4344ZM187.6466 316.6844Q187.05286 317.1844 186.50598 317.3875Q185.97473 317.59064 185.34973 317.59064Q184.31848 317.59064 183.7716 317.09064Q183.22473 316.59064 183.22473 315.8094Q183.22473 315.35626 183.42786 314.98126Q183.63098 314.59064 183.97473 314.3719Q184.31848 314.1375 184.74036 314.02814Q185.03723 313.9344 185.67786 313.85626Q186.94348 313.71564 187.55286 313.4969Q187.55286 313.27814 187.55286 313.23126Q187.55286 312.575 187.25598 312.3094Q186.84973 311.96564 186.05286 311.96564Q185.31848 311.96564 184.9591 312.23126Q184.59973 312.48126 184.42786 313.1375L183.3966 312.9969Q183.53723 312.34064 183.86536 311.9344Q184.19348 311.52814 184.80286 311.3094Q185.41223 311.09064 186.2091 311.09064Q187.00598 311.09064 187.50598 311.27814Q188.00598 311.46564 188.24036 311.7469Q188.47473 312.02814 188.56848 312.46564Q188.61536 312.73126 188.61536 313.4344L188.61536 314.84064Q188.61536 316.3094 188.67786 316.7Q188.75598 317.09064 188.9591 317.45L187.84973 317.45Q187.69348 317.1219 187.6466 316.6844ZM187.55286 314.325Q186.97473 314.5594 185.8341 314.73126Q185.17786 314.825 184.91223 314.95Q184.6466 315.0594 184.49036 315.27814Q184.34973 315.4969 184.34973 315.77814Q184.34973 316.2 184.66223 316.48126Q184.99036 316.7625 185.59973 316.7625Q186.2091 316.7625 186.67786 316.4969Q187.16223 316.23126 187.38098 315.7625Q187.55286 315.40314 187.55286 314.71564L187.55286 314.325ZM194.6466 315.16876L195.67786 315.3094Q195.50598 316.3719 194.80286 316.98126Q194.09973 317.59064 193.0841 317.59064Q191.80286 317.59064 191.0216 316.7625Q190.25598 315.91876 190.25598 314.35626Q190.25598 313.35626 190.5841 312.60626Q190.92786 311.84064 191.59973 311.46564Q192.28723 311.09064 193.09973 311.09064Q194.09973 311.09064 194.74036 311.60626Q195.3966 312.10626 195.5841 313.0594L194.55286 313.21564Q194.41223 312.59064 194.03723 312.27814Q193.66223 311.95 193.13098 311.95Q192.3341 311.95 191.8341 312.52814Q191.3341 313.09064 191.3341 314.325Q191.3341 315.59064 191.81848 316.15314Q192.30286 316.71564 193.06848 316.71564Q193.69348 316.71564 194.09973 316.34064Q194.5216 315.96564 194.6466 315.16876ZM196.5841 317.45L196.5841 308.85626L197.63098 308.85626L197.63098 311.9344Q198.36536 311.09064 199.49036 311.09064Q200.19348 311.09064 200.69348 311.3719Q201.2091 311.6375 201.42786 312.1219Q201.6466 312.59064 201.6466 313.5125L201.6466 317.45L200.59973 317.45L200.59973 313.5125Q200.59973 312.71564 200.25598 312.35626Q199.91223 311.9969 199.28723 311.9969Q198.81848 311.9969 198.3966 312.2469Q197.99036 312.48126 197.80286 312.90314Q197.63098 313.3094 197.63098 314.04376L197.63098 317.45L196.5841 317.45ZM207.8341 315.45L208.92786 315.575Q208.67786 316.52814 207.97473 317.0594Q207.2716 317.59064 206.19348 317.59064Q204.8341 317.59064 204.0216 316.7469Q203.22473 315.90314 203.22473 314.3875Q203.22473 312.825 204.03723 311.96564Q204.84973 311.09064 206.13098 311.09064Q207.38098 311.09064 208.16223 311.9344Q208.9591 312.77814 208.9591 314.325Q208.9591 314.41876 208.9591 314.60626L204.31848 314.60626Q204.38098 315.6375 204.8966 316.1844Q205.41223 316.71564 206.19348 316.71564Q206.7716 316.71564 207.17786 316.41876Q207.59973 316.10626 207.8341 315.45ZM204.38098 313.7469L207.84973 313.7469Q207.78723 312.95 207.4591 312.5594Q206.94348 311.95 206.1466 311.95Q205.41223 311.95 204.91223 312.4344Q204.42786 312.91876 204.38098 313.7469ZM210.84973 317.45L210.84973 316.2469L212.05286 316.2469L212.05286 317.45Q212.05286 318.10626 211.81848 318.5125Q211.5841 318.9344 211.0841 319.15314L210.78723 318.7Q211.11536 318.5594 211.2716 318.2625Q211.42786 317.98126 211.4591 317.45L210.84973 317.45ZM216.67786 317.45L216.67786 308.85626L218.3966 308.85626L220.42786 314.9344Q220.7091 315.79376 220.8341 316.21564Q220.97473 315.7469 221.28723 314.84064L223.34973 308.85626L224.88098 308.85626L224.88098 317.45L223.78723 317.45L223.78723 310.2625L221.28723 317.45L220.25598 317.45L217.7716 310.1375L217.7716 317.45L216.67786 317.45ZM229.66223 317.45L229.66223 316.52814Q228.92786 317.59064 227.67786 317.59064Q227.13098 317.59064 226.6466 317.3875Q226.17786 317.16876 225.94348 316.85626Q225.7091 316.52814 225.61536 316.0594Q225.55286 315.7625 225.55286 315.075L225.55286 311.23126L226.61536 311.23126L226.61536 314.6844Q226.61536 315.4969 226.67786 315.79376Q226.7716 316.2 227.0841 316.45Q227.41223 316.6844 227.8966 316.6844Q228.36536 316.6844 228.7716 316.45Q229.19348 316.2 229.36536 315.77814Q229.55286 315.35626 229.55286 314.5594L229.55286 311.23126L230.59973 311.23126L230.59973 317.45L229.66223 317.45ZM232.55286 317.45L232.55286 308.85626L233.61536 308.85626L233.61536 317.45L232.55286 317.45ZM237.88098 316.5125L238.03723 317.4344Q237.5841 317.52814 237.24036 317.52814Q236.66223 317.52814 236.34973 317.35626Q236.03723 317.16876 235.8966 316.8719Q235.7716 316.575 235.7716 315.6219L235.7716 312.04376L235.00598 312.04376L235.00598 311.23126L235.7716 311.23126L235.7716 309.6844L236.81848 309.0594L236.81848 311.23126L237.88098 311.23126L237.88098 312.04376L236.81848 312.04376L236.81848 315.6844Q236.81848 316.1375 236.86536 316.2625Q236.92786 316.3875 237.05286 316.46564Q237.17786 316.54376 237.41223 316.54376Q237.59973 316.54376 237.88098 316.5125ZM238.5841 310.075L238.5841 308.85626L239.6466 308.85626L239.6466 310.075L238.5841 310.075ZM238.5841 317.45L238.5841 311.23126L239.6466 311.23126L239.6466 317.45L238.5841 317.45ZM243.88098 316.5125L244.03723 317.4344Q243.5841 317.52814 243.24036 317.52814Q242.66223 317.52814 242.34973 317.35626Q242.03723 317.16876 241.8966 316.8719Q241.7716 316.575 241.7716 315.6219L241.7716 312.04376L241.00598 312.04376L241.00598 311.23126L241.7716 311.23126L241.7716 309.6844L242.81848 309.0594L242.81848 311.23126L243.88098 311.23126L243.88098 312.04376L242.81848 312.04376L242.81848 315.6844Q242.81848 316.1375 242.86536 316.2625Q242.92786 316.3875 243.05286 316.46564Q243.17786 316.54376 243.41223 316.54376Q243.59973 316.54376 243.88098 316.5125ZM244.5841 317.45L244.5841 308.85626L245.63098 308.85626L245.63098 311.9344Q246.36536 311.09064 247.49036 311.09064Q248.19348 311.09064 248.69348 311.3719Q249.2091 311.6375 249.42786 312.1219Q249.6466 312.59064 249.6466 313.5125L249.6466 317.45L248.59973 317.45L248.59973 313.5125Q248.59973 312.71564 248.25598 312.35626Q247.91223 311.9969 247.28723 311.9969Q246.81848 311.9969 246.3966 312.2469Q245.99036 312.48126 245.80286 312.90314Q245.63098 313.3094 245.63098 314.04376L245.63098 317.45L244.5841 317.45ZM251.56848 317.45L251.56848 311.23126L252.5216 311.23126L252.5216 312.16876Q252.88098 311.5125 253.17786 311.3094Q253.49036 311.09064 253.86536 311.09064Q254.3966 311.09064 254.94348 311.41876L254.5841 312.40314Q254.19348 312.16876 253.81848 312.16876Q253.4591 312.16876 253.17786 312.3875Q252.91223 312.59064 252.80286 312.96564Q252.61536 313.52814 252.61536 314.1844L252.61536 317.45L251.56848 317.45ZM259.8341 315.45L260.92786 315.575Q260.67786 316.52814 259.97473 317.0594Q259.2716 317.59064 258.19348 317.59064Q256.8341 317.59064 256.0216 316.7469Q255.22473 315.90314 255.22473 314.3875Q255.22473 312.825 256.03723 311.96564Q256.84973 311.09064 258.13098 311.09064Q259.38098 311.09064 260.16223 311.9344Q260.9591 312.77814 260.9591 314.325Q260.9591 314.41876 260.9591 314.60626L256.31848 314.60626Q256.38098 315.6375 256.8966 316.1844Q257.41223 316.71564 258.19348 316.71564Q258.7716 316.71564 259.17786 316.41876Q259.59973 316.10626 259.8341 315.45ZM256.38098 313.7469L259.84973 313.7469Q259.78723 312.95 259.4591 312.5594Q258.94348 311.95 258.1466 311.95Q257.41223 311.95 256.91223 312.4344Q256.42786 312.91876 256.38098 313.7469ZM266.6466 316.6844Q266.05286 317.1844 265.50598 317.3875Q264.97473 317.59064 264.34973 317.59064Q263.31848 317.59064 262.7716 317.09064Q262.22473 316.59064 262.22473 315.8094Q262.22473 315.35626 262.42786 314.98126Q262.63098 314.59064 262.97473 314.3719Q263.31848 314.1375 263.74036 314.02814Q264.03723 313.9344 264.67786 313.85626Q265.94348 313.71564 266.55286 313.4969Q266.55286 313.27814 266.55286 313.23126Q266.55286 312.575 266.25598 312.3094Q265.84973 311.96564 265.05286 311.96564Q264.31848 311.96564 263.9591 312.23126Q263.59973 312.48126 263.42786 313.1375L262.3966 312.9969Q262.53723 312.34064 262.86536 311.9344Q263.19348 311.52814 263.80286 311.3094Q264.41223 311.09064 265.2091 311.09064Q266.00598 311.09064 266.50598 311.27814Q267.00598 311.46564 267.24036 311.7469Q267.47473 312.02814 267.56848 312.46564Q267.61536 312.73126 267.61536 313.4344L267.61536 314.84064Q267.61536 316.3094 267.67786 316.7Q267.75598 317.09064 267.9591 317.45L266.84973 317.45Q266.69348 317.1219 266.6466 316.6844ZM266.55286 314.325Q265.97473 314.5594 264.8341 314.73126Q264.17786 314.825 263.91223 314.95Q263.6466 315.0594 263.49036 315.27814Q263.34973 315.4969 263.34973 315.77814Q263.34973 316.2 263.66223 316.48126Q263.99036 316.7625 264.59973 316.7625Q265.2091 316.7625 265.67786 316.4969Q266.16223 316.23126 266.38098 315.7625Q266.55286 315.40314 266.55286 314.71564L266.55286 314.325ZM273.61536 317.45L273.61536 316.66876Q273.0216 317.59064 271.88098 317.59064Q271.13098 317.59064 270.50598 317.1844Q269.88098 316.7625 269.53723 316.02814Q269.19348 315.29376 269.19348 314.34064Q269.19348 313.41876 269.50598 312.65314Q269.81848 311.8875 270.44348 311.4969Q271.06848 311.09064 271.8341 311.09064Q272.3966 311.09064 272.8341 311.325Q273.2716 311.5594 273.55286 311.9344L273.55286 308.85626L274.59973 308.85626L274.59973 317.45L273.61536 317.45ZM270.28723 314.34064Q270.28723 315.54376 270.78723 316.1375Q271.28723 316.71564 271.97473 316.71564Q272.66223 316.71564 273.1466 316.15314Q273.63098 315.59064 273.63098 314.4344Q273.63098 313.15314 273.13098 312.5594Q272.6466 311.96564 271.92786 311.96564Q271.22473 311.96564 270.75598 312.54376Q270.28723 313.10626 270.28723 314.34064ZM280.8341 315.45L281.92786 315.575Q281.67786 316.52814 280.97473 317.0594Q280.2716 317.59064 279.19348 317.59064Q277.8341 317.59064 277.0216 316.7469Q276.22473 315.90314 276.22473 314.3875Q276.22473 312.825 277.03723 311.96564Q277.84973 311.09064 279.13098 311.09064Q280.38098 311.09064 281.16223 311.9344Q281.9591 312.77814 281.9591 314.325Q281.9591 314.41876 281.9591 314.60626L277.31848 314.60626Q277.38098 315.6375 277.8966 316.1844Q278.41223 316.71564 279.19348 316.71564Q279.7716 316.71564 280.17786 316.41876Q280.59973 316.10626 280.8341 315.45ZM277.38098 313.7469L280.84973 313.7469Q280.78723 312.95 280.4591 312.5594Q279.94348 311.95 279.1466 311.95Q278.41223 311.95 277.91223 312.4344Q277.42786 312.91876 277.38098 313.7469ZM287.61536 317.45L287.61536 316.66876Q287.0216 317.59064 285.88098 317.59064Q285.13098 317.59064 284.50598 317.1844Q283.88098 316.7625 283.53723 316.02814Q283.19348 315.29376 283.19348 314.34064Q283.19348 313.41876 283.50598 312.65314Q283.81848 311.8875 284.44348 311.4969Q285.06848 311.09064 285.8341 311.09064Q286.3966 311.09064 286.8341 311.325Q287.2716 311.5594 287.55286 311.9344L287.55286 308.85626L288.59973 308.85626L288.59973 317.45L287.61536 317.45ZM284.28723 314.34064Q284.28723 315.54376 284.78723 316.1375Q285.28723 316.71564 285.97473 316.71564Q286.66223 316.71564 287.1466 316.15314Q287.63098 315.59064 287.63098 314.4344Q287.63098 313.15314 287.13098 312.5594Q286.6466 311.96564 285.92786 311.96564Q285.22473 311.96564 284.75598 312.54376Q284.28723 313.10626 284.28723 314.34064Z" fill-rule="nonzero"/><path fill="#000000" d="M353.68152 317.45L353.68152 308.85626L354.80652 308.85626L354.80652 312.3875L359.27527 312.3875L359.27527 308.85626L360.4159 308.85626L360.4159 317.45L359.27527 317.45L359.27527 313.40314L354.80652 313.40314L354.80652 317.45L353.68152 317.45ZM362.46277 319.84064L362.33777 318.85626Q362.68152 318.95 362.94714 318.95Q363.2909 318.95 363.49402 318.825Q363.71277 318.71564 363.8534 318.5125Q363.94714 318.34064 364.18152 317.71564Q364.19714 317.6375 364.27527 317.46564L361.90027 311.23126L363.0409 311.23126L364.33777 314.825Q364.58777 315.5125 364.7909 316.27814Q364.9784 315.54376 365.2284 314.85626L366.55652 311.23126L367.6034 311.23126L365.24402 317.5594Q364.8534 318.575 364.65027 318.96564Q364.36902 319.4969 363.99402 319.73126Q363.63464 319.98126 363.13464 319.98126Q362.83777 319.98126 362.46277 319.84064ZM371.5409 317.45L371.5409 316.66876Q370.94714 317.59064 369.80652 317.59064Q369.05652 317.59064 368.43152 317.1844Q367.80652 316.7625 367.46277 316.02814Q367.11902 315.29376 367.11902 314.34064Q367.11902 313.41876 367.43152 312.65314Q367.74402 311.8875 368.36902 311.4969Q368.99402 311.09064 369.75964 311.09064Q370.32214 311.09064 370.75964 311.325Q371.19714 311.5594 371.4784 311.9344L371.4784 308.85626L372.52527 308.85626L372.52527 317.45L371.5409 317.45ZM368.21277 314.34064Q368.21277 315.54376 368.71277 316.1375Q369.21277 316.71564 369.90027 316.71564Q370.58777 316.71564 371.07214 316.15314Q371.55652 315.59064 371.55652 314.4344Q371.55652 313.15314 371.05652 312.5594Q370.57214 311.96564 369.8534 311.96564Q369.15027 311.96564 368.68152 312.54376Q368.21277 313.10626 368.21277 314.34064ZM374.49402 317.45L374.49402 311.23126L375.44714 311.23126L375.44714 312.16876Q375.80652 311.5125 376.1034 311.3094Q376.4159 311.09064 376.7909 311.09064Q377.32214 311.09064 377.86902 311.41876L377.50964 312.40314Q377.11902 312.16876 376.74402 312.16876Q376.38464 312.16876 376.1034 312.3875Q375.83777 312.59064 375.7284 312.96564Q375.5409 313.52814 375.5409 314.1844L375.5409 317.45L374.49402 317.45ZM382.57214 316.6844Q381.9784 317.1844 381.43152 317.3875Q380.90027 317.59064 380.27527 317.59064Q379.24402 317.59064 378.69714 317.09064Q378.15027 316.59064 378.15027 315.8094Q378.15027 315.35626 378.3534 314.98126Q378.55652 314.59064 378.90027 314.3719Q379.24402 314.1375 379.6659 314.02814Q379.96277 313.9344 380.6034 313.85626Q381.86902 313.71564 382.4784 313.4969Q382.4784 313.27814 382.4784 313.23126Q382.4784 312.575 382.18152 312.3094Q381.77527 311.96564 380.9784 311.96564Q380.24402 311.96564 379.88464 312.23126Q379.52527 312.48126 379.3534 313.1375L378.32214 312.9969Q378.46277 312.34064 378.7909 311.9344Q379.11902 311.52814 379.7284 311.3094Q380.33777 311.09064 381.13464 311.09064Q381.93152 311.09064 382.43152 311.27814Q382.93152 311.46564 383.1659 311.7469Q383.40027 312.02814 383.49402 312.46564Q383.5409 312.73126 383.5409 313.4344L383.5409 314.84064Q383.5409 316.3094 383.6034 316.7Q383.68152 317.09064 383.88464 317.45L382.77527 317.45Q382.61902 317.1219 382.57214 316.6844ZM382.4784 314.325Q381.90027 314.5594 380.75964 314.73126Q380.1034 314.825 379.83777 314.95Q379.57214 315.0594 379.4159 315.27814Q379.27527 315.4969 379.27527 315.77814Q379.27527 316.2 379.58777 316.48126Q379.9159 316.7625 380.52527 316.7625Q381.13464 316.7625 381.6034 316.4969Q382.08777 316.23126 382.30652 315.7625Q382.4784 315.40314 382.4784 314.71564L382.4784 314.325ZM387.80652 316.5125L387.96277 317.4344Q387.50964 317.52814 387.1659 317.52814Q386.58777 317.52814 386.27527 317.35626Q385.96277 317.16876 385.82214 316.8719Q385.69714 316.575 385.69714 315.6219L385.69714 312.04376L384.93152 312.04376L384.93152 311.23126L385.69714 311.23126L385.69714 309.6844L386.74402 309.0594L386.74402 311.23126L387.80652 311.23126L387.80652 312.04376L386.74402 312.04376L386.74402 315.6844Q386.74402 316.1375 386.7909 316.2625Q386.8534 316.3875 386.9784 316.46564Q387.1034 316.54376 387.33777 316.54376Q387.52527 316.54376 387.80652 316.5125ZM392.75964 315.45L393.8534 315.575Q393.6034 316.52814 392.90027 317.0594Q392.19714 317.59064 391.11902 317.59064Q389.75964 317.59064 388.94714 316.7469Q388.15027 315.90314 388.15027 314.3875Q388.15027 312.825 388.96277 311.96564Q389.77527 311.09064 391.05652 311.09064Q392.30652 311.09064 393.08777 311.9344Q393.88464 312.77814 393.88464 314.325Q393.88464 314.41876 393.88464 314.60626L389.24402 314.60626Q389.30652 315.6375 389.82214 316.1844Q390.33777 316.71564 391.11902 316.71564Q391.69714 316.71564 392.1034 316.41876Q392.52527 316.10626 392.75964 315.45ZM389.30652 313.7469L392.77527 313.7469Q392.71277 312.95 392.38464 312.5594Q391.86902 311.95 391.07214 311.95Q390.33777 311.95 389.83777 312.4344Q389.3534 312.91876 389.30652 313.7469ZM399.5409 317.45L399.5409 316.66876Q398.94714 317.59064 397.80652 317.59064Q397.05652 317.59064 396.43152 317.1844Q395.80652 316.7625 395.46277 316.02814Q395.11902 315.29376 395.11902 314.34064Q395.11902 313.41876 395.43152 312.65314Q395.74402 311.8875 396.36902 311.4969Q396.99402 311.09064 397.75964 311.09064Q398.32214 311.09064 398.75964 311.325Q399.19714 311.5594 399.4784 311.9344L399.4784 308.85626L400.52527 308.85626L400.52527 317.45L399.5409 317.45ZM396.21277 314.34064Q396.21277 315.54376 396.71277 316.1375Q397.21277 316.71564 397.90027 316.71564Q398.58777 316.71564 399.07214 316.15314Q399.55652 315.59064 399.55652 314.4344Q399.55652 313.15314 399.05652 312.5594Q398.57214 311.96564 397.8534 311.96564Q397.15027 311.96564 396.68152 312.54376Q396.21277 313.10626 396.21277 314.34064ZM411.77527 314.4344L412.90027 314.73126Q412.5409 316.1219 411.61902 316.85626Q410.69714 317.59064 409.3534 317.59064Q407.96277 317.59064 407.08777 317.02814Q406.21277 316.46564 405.75964 315.40314Q405.30652 314.325 405.30652 313.09064Q405.30652 311.7469 405.82214 310.7469Q406.33777 309.7469 407.27527 309.23126Q408.2284 308.71564 409.36902 308.71564Q410.65027 308.71564 411.52527 309.3719Q412.4159 310.02814 412.75964 311.21564L411.63464 311.48126Q411.33777 310.54376 410.75964 310.1219Q410.19714 309.6844 409.33777 309.6844Q408.3534 309.6844 407.68152 310.16876Q407.02527 310.6375 406.74402 311.4344Q406.4784 312.23126 406.4784 313.09064Q406.4784 314.1844 406.7909 314.9969Q407.11902 315.8094 407.7909 316.21564Q408.46277 316.6219 409.25964 316.6219Q410.21277 316.6219 410.86902 316.075Q411.5409 315.52814 411.77527 314.4344ZM418.57214 316.6844Q417.9784 317.1844 417.43152 317.3875Q416.90027 317.59064 416.27527 317.59064Q415.24402 317.59064 414.69714 317.09064Q414.15027 316.59064 414.15027 315.8094Q414.15027 315.35626 414.3534 314.98126Q414.55652 314.59064 414.90027 314.3719Q415.24402 314.1375 415.6659 314.02814Q415.96277 313.9344 416.6034 313.85626Q417.86902 313.71564 418.4784 313.4969Q418.4784 313.27814 418.4784 313.23126Q418.4784 312.575 418.18152 312.3094Q417.77527 311.96564 416.9784 311.96564Q416.24402 311.96564 415.88464 312.23126Q415.52527 312.48126 415.3534 313.1375L414.32214 312.9969Q414.46277 312.34064 414.7909 311.9344Q415.11902 311.52814 415.7284 311.3094Q416.33777 311.09064 417.13464 311.09064Q417.93152 311.09064 418.43152 311.27814Q418.93152 311.46564 419.1659 311.7469Q419.40027 312.02814 419.49402 312.46564Q419.5409 312.73126 419.5409 313.4344L419.5409 314.84064Q419.5409 316.3094 419.6034 316.7Q419.68152 317.09064 419.88464 317.45L418.77527 317.45Q418.61902 317.1219 418.57214 316.6844ZM418.4784 314.325Q417.90027 314.5594 416.75964 314.73126Q416.1034 314.825 415.83777 314.95Q415.57214 315.0594 415.4159 315.27814Q415.27527 315.4969 415.27527 315.77814Q415.27527 316.2 415.58777 316.48126Q415.9159 316.7625 416.52527 316.7625Q417.13464 316.7625 417.6034 316.4969Q418.08777 316.23126 418.30652 315.7625Q418.4784 315.40314 418.4784 314.71564L418.4784 314.325ZM425.57214 315.16876L426.6034 315.3094Q426.43152 316.3719 425.7284 316.98126Q425.02527 317.59064 424.00964 317.59064Q422.7284 317.59064 421.94714 316.7625Q421.18152 315.91876 421.18152 314.35626Q421.18152 313.35626 421.50964 312.60626Q421.8534 311.84064 422.52527 311.46564Q423.21277 311.09064 424.02527 311.09064Q425.02527 311.09064 425.6659 311.60626Q426.32214 312.10626 426.50964 313.0594L425.4784 313.21564Q425.33777 312.59064 424.96277 312.27814Q424.58777 311.95 424.05652 311.95Q423.25964 311.95 422.75964 312.52814Q422.25964 313.09064 422.25964 314.325Q422.25964 315.59064 422.74402 316.15314Q423.2284 316.71564 423.99402 316.71564Q424.61902 316.71564 425.02527 316.34064Q425.44714 315.96564 425.57214 315.16876ZM427.50964 317.45L427.50964 308.85626L428.55652 308.85626L428.55652 311.9344Q429.2909 311.09064 430.4159 311.09064Q431.11902 311.09064 431.61902 311.3719Q432.13464 311.6375 432.3534 312.1219Q432.57214 312.59064 432.57214 313.5125L432.57214 317.45L431.52527 317.45L431.52527 313.5125Q431.52527 312.71564 431.18152 312.35626Q430.83777 311.9969 430.21277 311.9969Q429.74402 311.9969 429.32214 312.2469Q428.9159 312.48126 428.7284 312.90314Q428.55652 313.3094 428.55652 314.04376L428.55652 317.45L427.50964 317.45ZM438.75964 315.45L439.8534 315.575Q439.6034 316.52814 438.90027 317.0594Q438.19714 317.59064 437.11902 317.59064Q435.75964 317.59064 434.94714 316.7469Q434.15027 315.90314 434.15027 314.3875Q434.15027 312.825 434.96277 311.96564Q435.77527 311.09064 437.05652 311.09064Q438.30652 311.09064 439.08777 311.9344Q439.88464 312.77814 439.88464 314.325Q439.88464 314.41876 439.88464 314.60626L435.24402 314.60626Q435.30652 315.6375 435.82214 316.1844Q436.33777 316.71564 437.11902 316.71564Q437.69714 316.71564 438.1034 316.41876Q438.52527 316.10626 438.75964 315.45ZM435.30652 313.7469L438.77527 313.7469Q438.71277 312.95 438.38464 312.5594Q437.86902 311.95 437.07214 311.95Q436.33777 311.95 435.83777 312.4344Q435.3534 312.91876 435.30652 313.7469ZM441.77527 317.45L441.77527 316.2469L442.9784 316.2469L442.9784 317.45Q442.9784 318.10626 442.74402 318.5125Q442.50964 318.9344 442.00964 319.15314L441.71277 318.7Q442.0409 318.5594 442.19714 318.2625Q442.3534 317.98126 442.38464 317.45L441.77527 317.45ZM447.6034 317.45L447.6034 308.85626L449.32214 308.85626L451.3534 314.9344Q451.63464 315.79376 451.75964 316.21564Q451.90027 315.7469 452.21277 314.84064L454.27527 308.85626L455.80652 308.85626L455.80652 317.45L454.71277 317.45L454.71277 310.2625L452.21277 317.45L451.18152 317.45L448.69714 310.1375L448.69714 317.45L447.6034 317.45ZM460.58777 317.45L460.58777 316.52814Q459.8534 317.59064 458.6034 317.59064Q458.05652 317.59064 457.57214 317.3875Q457.1034 317.16876 456.86902 316.85626Q456.63464 316.52814 456.5409 316.0594Q456.4784 315.7625 456.4784 315.075L456.4784 311.23126L457.5409 311.23126L457.5409 314.6844Q457.5409 315.4969 457.6034 315.79376Q457.69714 316.2 458.00964 316.45Q458.33777 316.6844 458.82214 316.6844Q459.2909 316.6844 459.69714 316.45Q460.11902 316.2 460.2909 315.77814Q460.4784 315.35626 460.4784 314.5594L460.4784 311.23126L461.52527 311.23126L461.52527 317.45L460.58777 317.45ZM463.4784 317.45L463.4784 308.85626L464.5409 308.85626L464.5409 317.45L463.4784 317.45ZM468.80652 316.5125L468.96277 317.4344Q468.50964 317.52814 468.1659 317.52814Q467.58777 317.52814 467.27527 317.35626Q466.96277 317.16876 466.82214 316.8719Q466.69714 316.575 466.69714 315.6219L466.69714 312.04376L465.93152 312.04376L465.93152 311.23126L466.69714 311.23126L466.69714 309.6844L467.74402 309.0594L467.74402 311.23126L468.80652 311.23126L468.80652 312.04376L467.74402 312.04376L467.74402 315.6844Q467.74402 316.1375 467.7909 316.2625Q467.8534 316.3875 467.9784 316.46564Q468.1034 316.54376 468.33777 316.54376Q468.52527 316.54376 468.80652 316.5125ZM469.50964 310.075L469.50964 308.85626L470.57214 308.85626L470.57214 310.075L469.50964 310.075ZM469.50964 317.45L469.50964 311.23126L470.57214 311.23126L470.57214 317.45L469.50964 317.45ZM474.80652 316.5125L474.96277 317.4344Q474.50964 317.52814 474.1659 317.52814Q473.58777 317.52814 473.27527 317.35626Q472.96277 317.16876 472.82214 316.8719Q472.69714 316.575 472.69714 315.6219L472.69714 312.04376L471.93152 312.04376L471.93152 311.23126L472.69714 311.23126L472.69714 309.6844L473.74402 309.0594L473.74402 311.23126L474.80652 311.23126L474.80652 312.04376L473.74402 312.04376L473.74402 315.6844Q473.74402 316.1375 473.7909 316.2625Q473.8534 316.3875 473.9784 316.46564Q474.1034 316.54376 474.33777 316.54376Q474.52527 316.54376 474.80652 316.5125ZM475.50964 317.45L475.50964 308.85626L476.55652 308.85626L476.55652 311.9344Q477.2909 311.09064 478.4159 311.09064Q479.11902 311.09064 479.61902 311.3719Q480.13464 311.6375 480.3534 312.1219Q480.57214 312.59064 480.57214 313.5125L480.57214 317.45L479.52527 317.45L479.52527 313.5125Q479.52527 312.71564 479.18152 312.35626Q478.83777 311.9969 478.21277 311.9969Q477.74402 311.9969 477.32214 312.2469Q476.9159 312.48126 476.7284 312.90314Q476.55652 313.3094 476.55652 314.04376L476.55652 317.45L475.50964 317.45ZM482.49402 317.45L482.49402 311.23126L483.44714 311.23126L483.44714 312.16876Q483.80652 311.5125 484.1034 311.3094Q484.4159 311.09064 484.7909 311.09064Q485.32214 311.09064 485.86902 311.41876L485.50964 312.40314Q485.11902 312.16876 484.74402 312.16876Q484.38464 312.16876 484.1034 312.3875Q483.83777 312.59064 483.7284 312.96564Q483.5409 313.52814 483.5409 314.1844L483.5409 317.45L482.49402 317.45ZM490.75964 315.45L491.8534 315.575Q491.6034 316.52814 490.90027 317.0594Q490.19714 317.59064 489.11902 317.59064Q487.75964 317.59064 486.94714 316.7469Q486.15027 315.90314 486.15027 314.3875Q486.15027 312.825 486.96277 311.96564Q487.77527 311.09064 489.05652 311.09064Q490.30652 311.09064 491.08777 311.9344Q491.88464 312.77814 491.88464 314.325Q491.88464 314.41876 491.88464 314.60626L487.24402 314.60626Q487.30652 315.6375 487.82214 316.1844Q488.33777 316.71564 489.11902 316.71564Q489.69714 316.71564 490.1034 316.41876Q490.52527 316.10626 490.75964 315.45ZM487.30652 313.7469L490.77527 313.7469Q490.71277 312.95 490.38464 312.5594Q489.86902 311.95 489.07214 311.95Q488.33777 311.95 487.83777 312.4344Q487.3534 312.91876 487.30652 313.7469ZM497.57214 316.6844Q496.9784 317.1844 496.43152 317.3875Q495.90027 317.59064 495.27527 317.59064Q494.24402 317.59064 493.69714 317.09064Q493.15027 316.59064 493.15027 315.8094Q493.15027 315.35626 493.3534 314.98126Q493.55652 314.59064 493.90027 314.3719Q494.24402 314.1375 494.6659 314.02814Q494.96277 313.9344 495.6034 313.85626Q496.86902 313.71564 497.4784 313.4969Q497.4784 313.27814 497.4784 313.23126Q497.4784 312.575 497.18152 312.3094Q496.77527 311.96564 495.9784 311.96564Q495.24402 311.96564 494.88464 312.23126Q494.52527 312.48126 494.3534 313.1375L493.32214 312.9969Q493.46277 312.34064 493.7909 311.9344Q494.11902 311.52814 494.7284 311.3094Q495.33777 311.09064 496.13464 311.09064Q496.93152 311.09064 497.43152 311.27814Q497.93152 311.46564 498.1659 311.7469Q498.40027 312.02814 498.49402 312.46564Q498.5409 312.73126 498.5409 313.4344L498.5409 314.84064Q498.5409 316.3094 498.6034 316.7Q498.68152 317.09064 498.88464 317.45L497.77527 317.45Q497.61902 317.1219 497.57214 316.6844ZM497.4784 314.325Q496.90027 314.5594 495.75964 314.73126Q495.1034 314.825 494.83777 314.95Q494.57214 315.0594 494.4159 315.27814Q494.27527 315.4969 494.27527 315.77814Q494.27527 316.2 494.58777 316.48126Q494.9159 316.7625 495.52527 316.7625Q496.13464 316.7625 496.6034 316.4969Q497.08777 316.23126 497.30652 315.7625Q497.4784 315.40314 497.4784 314.71564L497.4784 314.325ZM504.5409 317.45L504.5409 316.66876Q503.94714 317.59064 502.80652 317.59064Q502.05652 317.59064 501.43152 317.1844Q500.80652 316.7625 500.46277 316.02814Q500.11902 315.29376 500.11902 314.34064Q500.11902 313.41876 500.43152 312.65314Q500.74402 311.8875 501.36902 311.4969Q501.99402 311.09064 502.75964 311.09064Q503.32214 311.09064 503.75964 311.325Q504.19714 311.5594 504.4784 311.9344L504.4784 308.85626L505.52527 308.85626L505.52527 317.45L504.5409 317.45ZM501.21277 314.34064Q501.21277 315.54376 501.71277 316.1375Q502.21277 316.71564 502.90027 316.71564Q503.58777 316.71564 504.07214 316.15314Q504.55652 315.59064 504.55652 314.4344Q504.55652 313.15314 504.05652 312.5594Q503.57214 311.96564 502.8534 311.96564Q502.15027 311.96564 501.68152 312.54376Q501.21277 313.10626 501.21277 314.34064ZM511.75964 315.45L512.8534 315.575Q512.6034 316.52814 511.90027 317.0594Q511.19714 317.59064 510.11902 317.59064Q508.75964 317.59064 507.94714 316.7469Q507.15027 315.90314 507.15027 314.3875Q507.15027 312.825 507.96277 311.96564Q508.77527 311.09064 510.05652 311.09064Q511.30652 311.09064 512.08777 311.9344Q512.88464 312.77814 512.88464 314.325Q512.88464 314.41876 512.88464 314.60626L508.24402 314.60626Q508.30652 315.6375 508.82214 316.1844Q509.33777 316.71564 510.11902 316.71564Q510.69714 316.71564 511.1034 316.41876Q511.52527 316.10626 511.75964 315.45ZM508.30652 313.7469L511.77527 313.7469Q511.71277 312.95 511.38464 312.5594Q510.86902 311.95 510.07214 311.95Q509.33777 311.95 508.83777 312.4344Q508.3534 312.91876 508.30652 313.7469ZM518.5409 317.45L518.5409 316.66876Q517.94714 317.59064 516.8065 317.59064Q516.0565 317.59064 515.4315 317.1844Q514.8065 316.7625 514.46277 316.02814Q514.119 315.29376 514.119 314.34064Q514.119 313.41876 514.4315 312.65314Q514.744 311.8875 515.369 311.4969Q515.994 311.09064 516.75964 311.09064Q517.32214 311.09064 517.75964 311.325Q518.19714 311.5594 518.4784 311.9344L518.4784 308.85626L519.52527 308.85626L519.52527 317.45L518.5409 317.45ZM515.21277 314.34064Q515.21277 315.54376 515.71277 316.1375Q516.21277 316.71564 516.90027 316.71564Q517.58777 316.71564 518.07214 316.15314Q518.5565 315.59064 518.5565 314.4344Q518.5565 313.15314 518.0565 312.5594Q517.57214 311.96564 516.8534 311.96564Q516.15027 311.96564 515.6815 312.54376Q515.21277 313.10626 515.21277 314.34064Z" fill-rule="nonzero"/><path fill="#999999" d="M19.596874 63.05L19.596874 53.034374L21.58125 53.034374L23.95625 60.128124Q24.284374 61.1125 24.440624 61.6125Q24.6125 61.065624 24.971874 60.003124L27.3625 53.034374L29.159374 53.034374L29.159374 63.05L27.878124 63.05L27.878124 54.659374L24.95625 63.05L23.76875 63.05L20.8625 54.51875L20.8625 63.05L19.596874 63.05ZM30.58125 63.05L30.58125 53.034374L34.33125 53.034374Q35.4875 53.034374 36.175 53.346874Q36.878124 53.64375 37.26875 54.26875Q37.659374 54.89375 37.659374 55.596874Q37.659374 56.2375 37.3 56.8Q36.95625 57.3625 36.253124 57.721874Q37.159374 57.9875 37.64375 58.628124Q38.14375 59.26875 38.14375 60.14375Q38.14375 60.846874 37.846874 61.45625Q37.55 62.065624 37.1125 62.39375Q36.675 62.721874 36.003124 62.89375Q35.346874 63.05 34.39375 63.05L30.58125 63.05ZM31.909374 57.2375L34.065624 57.2375Q34.95625 57.2375 35.33125 57.128124Q35.846874 56.971874 36.096874 56.628124Q36.346874 56.26875 36.346874 55.753124Q36.346874 55.253124 36.1125 54.878124Q35.878124 54.4875 35.425 54.346874Q34.9875 54.20625 33.909374 54.20625L31.909374 54.20625L31.909374 57.2375ZM31.909374 61.8625L34.39375 61.8625Q35.034374 61.8625 35.3 61.815624Q35.753124 61.7375 36.065624 61.55Q36.378124 61.346874 36.565624 60.9875Q36.76875 60.628124 36.76875 60.14375Q36.76875 59.58125 36.471874 59.175Q36.190624 58.753124 35.675 58.596874Q35.175 58.425 34.221874 58.425L31.909374 58.425L31.909374 61.8625ZM38.83125 63.05L38.83125 61.815624L43.971874 55.39375Q44.51875 54.721874 45.003124 54.20625L39.409374 54.20625L39.409374 53.034374L46.596874 53.034374L46.596874 54.20625L40.95625 61.159374L40.3625 61.8625L46.753124 61.8625L46.753124 63.05L38.83125 63.05ZM46.33125 65.83125L46.33125 64.94063L54.4875 64.94063L54.4875 65.83125L46.33125 65.83125ZM54.33125 65.83125L54.33125 64.94063L62.4875 64.94063L62.4875 65.83125L54.33125 65.83125ZM63.128124 58.1125Q63.128124 56.33125 63.4875 55.253124Q63.8625 54.159374 64.58125 53.58125Q65.3 52.9875 66.39375 52.9875Q67.20625 52.9875 67.81563 53.315624Q68.425 53.64375 68.81563 54.253124Q69.22188 54.8625 69.44063 55.7375Q69.65938 56.6125 69.65938 58.1125Q69.65938 59.878124 69.3 60.95625Q68.94063 62.034374 68.22188 62.628124Q67.50313 63.221874 66.39375 63.221874Q64.95625 63.221874 64.12813 62.175Q63.128124 60.925 63.128124 58.1125ZM64.39375 58.1125Q64.39375 60.58125 64.97188 61.39375Q65.55 62.20625 66.39375 62.20625Q67.25313 62.20625 67.83125 61.39375Q68.40938 60.565624 68.40938 58.1125Q68.40938 55.628124 67.83125 54.815624Q67.25313 54.003124 66.37813 54.003124Q65.53438 54.003124 65.03438 54.721874Q64.39375 55.64375 64.39375 58.1125ZM70.33125 65.83125L70.33125 64.94063L78.4875 64.94063L78.4875 65.83125L70.33125 65.83125ZM78.33125 65.83125L78.33125 64.94063L86.4875 64.94063L86.4875 65.83125L78.33125 65.83125ZM87.175 59.83125L88.425 59.721874Q88.51875 60.471874 88.84688 60.95625Q89.175 61.440624 89.84688 61.7375Q90.53438 62.034374 91.39375 62.034374Q92.14375 62.034374 92.72188 61.815624Q93.31563 61.58125 93.59688 61.190624Q93.87813 60.8 93.87813 60.33125Q93.87813 59.8625 93.59688 59.51875Q93.33125 59.159374 92.70625 58.909374Q92.3 58.753124 90.90938 58.425Q89.53438 58.096874 88.9875 57.8Q88.26875 57.425 87.90938 56.878124Q87.56563 56.315624 87.56563 55.6125Q87.56563 54.8625 87.9875 54.20625Q88.425 53.534374 89.25313 53.20625Q90.08125 52.8625 91.09688 52.8625Q92.20625 52.8625 93.05 53.221874Q93.90938 53.58125 94.3625 54.284374Q94.81563 54.971874 94.8625 55.846874L93.58125 55.940624Q93.4875 55.003124 92.89375 54.51875Q92.3 54.01875 91.14375 54.01875Q89.94063 54.01875 89.39375 54.471874Q88.84688 54.909374 88.84688 55.534374Q88.84688 56.065624 89.2375 56.425Q89.6125 56.76875 91.22188 57.14375Q92.84688 57.503124 93.44063 57.76875Q94.31563 58.175 94.7375 58.8Q95.15938 59.409374 95.15938 60.221874Q95.15938 61.01875 94.69063 61.7375Q94.2375 62.440624 93.37813 62.83125Q92.51875 63.221874 91.45625 63.221874Q90.09688 63.221874 89.175 62.83125Q88.25313 62.425 87.72188 61.628124Q87.20625 60.83125 87.175 59.83125ZM96.59688 63.05L96.59688 53.034374L98.58125 53.034374L100.95625 60.128124Q101.28438 61.1125 101.44063 61.6125Q101.6125 61.065624 101.97188 60.003124L104.3625 53.034374L106.15938 53.034374L106.15938 63.05L104.87813 63.05L104.87813 54.659374L101.95625 63.05L100.76875 63.05L97.8625 54.51875L97.8625 63.05L96.59688 63.05ZM107.22188 58.175Q107.22188 55.675 108.56563 54.26875Q109.90938 52.846874 112.01875 52.846874Q113.40938 52.846874 114.51875 53.51875Q115.64375 54.175 116.22188 55.3625Q116.81563 56.55 116.81563 58.05Q116.81563 59.58125 116.19063 60.784374Q115.58125 61.9875 114.45625 62.6125Q113.33125 63.221874 112.01875 63.221874Q110.59688 63.221874 109.4875 62.534374Q108.37813 61.846874 107.8 60.675Q107.22188 59.4875 107.22188 58.175ZM108.59688 58.190624Q108.59688 60.003124 109.56563 61.05Q110.55 62.08125 112.01875 62.08125Q113.50313 62.08125 114.47188 61.034374Q115.44063 59.9875 115.44063 58.05Q115.44063 56.815624 115.01875 55.909374Q114.6125 55.003124 113.81563 54.503124Q113.01875 53.9875 112.03438 53.9875Q110.62813 53.9875 109.6125 54.95625Q108.59688 55.925 108.59688 58.190624ZM118.22188 58.175Q118.22188 55.675 119.56563 54.26875Q120.90938 52.846874 123.01875 52.846874Q124.40938 52.846874 125.51875 53.51875Q126.64375 54.175 127.22188 55.3625Q127.81563 56.55 127.81563 58.05Q127.81563 59.58125 127.19063 60.784374Q126.58125 61.9875 125.45625 62.6125Q124.33125 63.221874 123.01875 63.221874Q121.59688 63.221874 120.4875 62.534374Q119.37813 61.846874 118.8 60.675Q118.22188 59.4875 118.22188 58.175ZM119.59688 58.190624Q119.59688 60.003124 120.56563 61.05Q121.55 62.08125 123.01875 62.08125Q124.50313 62.08125 125.47188 61.034374Q126.44063 59.9875 126.44063 58.05Q126.44063 56.815624 126.01875 55.909374Q125.6125 55.003124 124.81563 54.503124Q124.01875 53.9875 123.03438 53.9875Q121.62813 53.9875 120.6125 54.95625Q119.59688 55.925 119.59688 58.190624ZM132.175 63.05L132.175 54.20625L128.87813 54.20625L128.87813 53.034374L136.81563 53.034374L136.81563 54.20625L133.50313 54.20625L133.50313 63.05L132.175 63.05ZM138.675 63.05L138.675 53.034374L140.00313 53.034374L140.00313 57.14375L145.20625 57.14375L145.20625 53.034374L146.53438 53.034374L146.53438 63.05L145.20625 63.05L145.20625 58.33125L140.00313 58.33125L140.00313 63.05L138.675 63.05ZM146.9875 60.034374L146.9875 58.8L150.76875 58.8L150.76875 60.034374L146.9875 60.034374ZM151.53438 63.05L155.37813 53.034374L156.8 53.034374L160.90938 63.05L159.39375 63.05L158.22188 60.01875L154.03438 60.01875L152.94063 63.05L151.53438 63.05ZM154.425 58.940624L157.81563 58.940624L156.76875 56.159374Q156.3 54.89375 156.06563 54.08125Q155.87813 55.05 155.51875 55.9875L154.425 58.940624ZM161.62813 63.05L161.62813 53.034374L165.08125 53.034374Q166.25313 53.034374 166.8625 53.175Q167.72188 53.3625 168.33125 53.89375Q169.12813 54.565624 169.51875 55.6125Q169.90938 56.64375 169.90938 57.9875Q169.90938 59.128124 169.64375 60.01875Q169.37813 60.89375 168.95625 61.471874Q168.55 62.05 168.05 62.378124Q167.55 62.70625 166.84688 62.878124Q166.15938 63.05 165.25313 63.05L161.62813 63.05ZM162.95625 61.8625L165.09688 61.8625Q166.08125 61.8625 166.64375 61.690624Q167.22188 61.503124 167.55 61.159374Q168.01875 60.690624 168.28438 59.89375Q168.55 59.096874 168.55 57.95625Q168.55 56.39375 168.03438 55.55Q167.51875 54.70625 166.78438 54.409374Q166.2375 54.20625 165.06563 54.20625L162.95625 54.20625L162.95625 61.8625ZM174.4875 63.05L170.6125 53.034374L172.05 53.034374L174.65938 60.315624Q174.97188 61.190624 175.175 61.95625Q175.40938 61.128124 175.72188 60.315624L178.425 53.034374L179.78438 53.034374L175.8625 63.05L174.4875 63.05ZM180.81563 63.05L180.81563 61.64375L182.22188 61.64375L182.22188 63.05L180.81563 63.05ZM183.9875 60.878124L185.19063 60.690624Q185.3 61.425 185.76875 61.815624Q186.2375 62.20625 187.08125 62.20625Q187.925 62.20625 188.33125 61.8625Q188.75313 61.51875 188.75313 61.05Q188.75313 60.628124 188.37813 60.39375Q188.12813 60.221874 187.12813 59.971874Q185.76875 59.628124 185.2375 59.378124Q184.72188 59.128124 184.45625 58.690624Q184.19063 58.253124 184.19063 57.721874Q184.19063 57.2375 184.40938 56.83125Q184.62813 56.409374 185.01875 56.128124Q185.3 55.925 185.78438 55.784374Q186.28438 55.628124 186.8625 55.628124Q187.70625 55.628124 188.34688 55.878124Q189.00313 56.1125 189.31563 56.534374Q189.62813 56.95625 189.7375 57.659374L188.53438 57.83125Q188.45625 57.26875 188.05 56.95625Q187.65938 56.64375 186.94063 56.64375Q186.09688 56.64375 185.7375 56.925Q185.37813 57.190624 185.37813 57.58125Q185.37813 57.815624 185.51875 58.003124Q185.675 58.20625 186.00313 58.33125Q186.175 58.39375 187.08125 58.64375Q188.39375 59.003124 188.90938 59.221874Q189.425 59.440624 189.70625 59.8625Q190.00313 60.284374 190.00313 60.909374Q190.00313 61.534374 189.64375 62.08125Q189.3 62.6125 188.6125 62.925Q187.94063 63.221874 187.08125 63.221874Q185.675 63.221874 184.925 62.628124Q184.19063 62.034374 183.9875 60.878124ZM191.44063 63.05L191.44063 53.034374L192.675 53.034374L192.675 63.05L191.44063 63.05ZM199.20625 62.159374Q198.53438 62.7375 197.89375 62.9875Q197.26875 63.221874 196.53438 63.221874Q195.34688 63.221874 194.69063 62.64375Q194.05 62.05 194.05 61.128124Q194.05 60.596874 194.28438 60.159374Q194.53438 59.721874 194.925 59.45625Q195.33125 59.190624 195.81563 59.05Q196.175 58.95625 196.90938 58.8625Q198.40938 58.690624 199.1125 58.440624Q199.1125 58.190624 199.1125 58.128124Q199.1125 57.3625 198.76875 57.065624Q198.3 56.64375 197.3625 56.64375Q196.50313 56.64375 196.08125 56.95625Q195.675 57.253124 195.47188 58.01875L194.26875 57.8625Q194.425 57.08125 194.8 56.6125Q195.19063 56.14375 195.89375 55.89375Q196.6125 55.628124 197.55 55.628124Q198.47188 55.628124 199.05 55.846874Q199.62813 56.065624 199.89375 56.39375Q200.175 56.721874 200.28438 57.2375Q200.34688 57.55 200.34688 58.3625L200.34688 60.003124Q200.34688 61.721874 200.425 62.175Q200.50313 62.628124 200.7375 63.05L199.45625 63.05Q199.26875 62.659374 199.20625 62.159374ZM199.1125 59.409374Q198.44063 59.675 197.09688 59.878124Q196.34688 59.9875 196.01875 60.128124Q195.70625 60.253124 195.53438 60.51875Q195.3625 60.784374 195.3625 61.096874Q195.3625 61.596874 195.7375 61.925Q196.1125 62.253124 196.83125 62.253124Q197.55 62.253124 198.09688 61.940624Q198.64375 61.628124 198.90938 61.08125Q199.1125 60.675 199.1125 59.8625L199.1125 59.409374ZM202.47188 63.05L202.47188 55.784374L203.58125 55.784374L203.58125 56.815624Q204.37813 55.628124 205.89375 55.628124Q206.55 55.628124 207.09688 55.8625Q207.64375 56.096874 207.90938 56.4875Q208.19063 56.8625 208.3 57.39375Q208.37813 57.7375 208.37813 58.58125L208.37813 63.05L207.14375 63.05L207.14375 58.628124Q207.14375 57.878124 207.00313 57.51875Q206.8625 57.14375 206.4875 56.925Q206.12813 56.690624 205.62813 56.690624Q204.84688 56.690624 204.26875 57.190624Q203.70625 57.690624 203.70625 59.08125L203.70625 63.05L202.47188 63.05ZM210.25313 63.659374L211.44063 63.83125Q211.51875 64.37813 211.8625 64.64375Q212.31563 64.97188 213.1125 64.97188Q213.97188 64.97188 214.425 64.62813Q214.89375 64.3 215.06563 63.675Q215.15938 63.3 215.14375 62.096874Q214.34688 63.05 213.14375 63.05Q211.64375 63.05 210.81563 61.971874Q210.00313 60.89375 210.00313 59.378124Q210.00313 58.346874 210.37813 57.471874Q210.75313 56.58125 211.45625 56.1125Q212.175 55.628124 213.14375 55.628124Q214.425 55.628124 215.26875 56.659374L215.26875 55.784374L216.39375 55.784374L216.39375 62.065624Q216.39375 63.76875 216.05 64.47188Q215.70625 65.175 214.95625 65.58125Q214.20625 66.00313 213.1125 66.00313Q211.81563 66.00313 211.01875 65.40938Q210.22188 64.83125 210.25313 63.659374ZM211.26875 59.284374Q211.26875 60.721874 211.83125 61.378124Q212.39375 62.034374 213.25313 62.034374Q214.09688 62.034374 214.675 61.378124Q215.25313 60.721874 215.25313 59.33125Q215.25313 58.003124 214.65938 57.33125Q214.06563 56.64375 213.2375 56.64375Q212.40938 56.64375 211.83125 57.315624Q211.26875 57.971874 211.26875 59.284374ZM218.47188 65.83125L218.47188 55.784374L219.59688 55.784374L219.59688 56.7375Q219.9875 56.175 220.4875 55.909374Q220.9875 55.628124 221.70625 55.628124Q222.62813 55.628124 223.33125 56.1125Q224.05 56.58125 224.40938 57.45625Q224.76875 58.33125 224.76875 59.3625Q224.76875 60.471874 224.3625 61.378124Q223.97188 62.26875 223.20625 62.753124Q222.45625 63.221874 221.6125 63.221874Q221.00313 63.221874 220.50313 62.95625Q220.01875 62.690624 219.70625 62.3L219.70625 65.83125L218.47188 65.83125ZM219.58125 59.45625Q219.58125 60.8625 220.14375 61.534374Q220.72188 62.20625 221.53438 62.20625Q222.34688 62.20625 222.925 61.51875Q223.51875 60.815624 223.51875 59.3625Q223.51875 57.971874 222.94063 57.284374Q222.37813 56.596874 221.58125 56.596874Q220.8 56.596874 220.19063 57.33125Q219.58125 58.065624 219.58125 59.45625Z" fill-rule="nonzero"/><path fill="#757575" d="M20.190624 37.55L20.190624 23.2375L29.846874 23.2375L29.846874 24.925L22.08125 24.925L22.08125 29.3625L28.8 29.3625L28.8 31.05L22.08125 31.05L22.08125 37.55L20.190624 37.55ZM31.878124 25.253124L31.878124 23.2375L33.64375 23.2375L33.64375 25.253124L31.878124 25.253124ZM31.878124 37.55L31.878124 27.175L33.64375 27.175L33.64375 37.55L31.878124 37.55ZM35.83125 37.55L35.83125 23.2375L37.58125 23.2375L37.58125 37.55L35.83125 37.55ZM43.70625 35.971874L43.95625 37.534374Q43.221874 37.690624 42.628124 37.690624Q41.675 37.690624 41.14375 37.39375Q40.628124 37.08125 40.409374 36.596874Q40.190624 36.096874 40.190624 34.51875L40.190624 28.55L38.909374 28.55L38.909374 27.175L40.190624 27.175L40.190624 24.6125L41.940624 23.55L41.940624 27.175L43.70625 27.175L43.70625 28.55L41.940624 28.55L41.940624 34.6125Q41.940624 35.3625 42.034374 35.58125Q42.128124 35.784374 42.33125 35.925Q42.55 36.05 42.940624 36.05Q43.221874 36.05 43.70625 35.971874ZM52.971874 34.20625L54.784374 34.440624Q54.3625 36.01875 53.190624 36.909374Q52.034374 37.784374 50.221874 37.784374Q47.95625 37.784374 46.6125 36.39375Q45.284374 34.9875 45.284374 32.45625Q45.284374 29.83125 46.628124 28.39375Q47.971874 26.940624 50.128124 26.940624Q52.20625 26.940624 53.51875 28.3625Q54.846874 29.76875 54.846874 32.346874Q54.846874 32.503124 54.83125 32.815624L47.096874 32.815624Q47.190624 34.51875 48.065624 35.425Q48.940624 36.33125 50.2375 36.33125Q51.20625 36.33125 51.878124 35.83125Q52.565624 35.315624 52.971874 34.20625ZM47.190624 31.3625L52.9875 31.3625Q52.878124 30.065624 52.33125 29.409374Q51.4875 28.39375 50.14375 28.39375Q48.940624 28.39375 48.1125 29.20625Q47.284374 30.003124 47.190624 31.3625ZM56.846874 37.55L56.846874 27.175L58.425 27.175L58.425 28.753124Q59.034374 27.64375 59.55 27.3Q60.065624 26.940624 60.675 26.940624Q61.565624 26.940624 62.4875 27.503124L61.878124 29.14375Q61.2375 28.753124 60.596874 28.753124Q60.01875 28.753124 59.55 29.1125Q59.096874 29.45625 58.89375 30.065624Q58.6125 31.003124 58.6125 32.1125L58.6125 37.55L56.846874 37.55ZM80.31563 32.534374L82.20625 33.003124Q81.6125 35.346874 80.06563 36.58125Q78.51875 37.8 76.26875 37.8Q73.95625 37.8 72.50313 36.8625Q71.06563 35.909374 70.3 34.128124Q69.55 32.33125 69.55 30.284374Q69.55 28.05 70.39375 26.39375Q71.25313 24.721874 72.83125 23.8625Q74.40938 22.9875 76.3 22.9875Q78.45625 22.9875 79.90938 24.08125Q81.37813 25.175 81.95625 27.159374L80.09688 27.596874Q79.59688 26.034374 78.64375 25.33125Q77.70625 24.6125 76.26875 24.6125Q74.6125 24.6125 73.50313 25.409374Q72.39375 26.190624 71.94063 27.534374Q71.50313 28.8625 71.50313 30.26875Q71.50313 32.096874 72.03438 33.471874Q72.56563 34.83125 73.69063 35.503124Q74.81563 36.175 76.1125 36.175Q77.70625 36.175 78.81563 35.253124Q79.925 34.33125 80.31563 32.534374ZM83.8625 37.55L83.8625 23.2375L85.62813 23.2375L85.62813 28.3625Q86.8625 26.940624 88.7375 26.940624Q89.87813 26.940624 90.72188 27.39375Q91.58125 27.846874 91.94063 28.659374Q92.31563 29.45625 92.31563 30.971874L92.31563 37.55L90.56563 37.55L90.56563 30.971874Q90.56563 29.659374 89.9875 29.065624Q89.40938 28.45625 88.37813 28.45625Q87.59688 28.45625 86.89375 28.8625Q86.20625 29.26875 85.90938 29.971874Q85.62813 30.659374 85.62813 31.878124L85.62813 37.55L83.8625 37.55ZM100.64375 36.26875Q99.65938 37.096874 98.75313 37.440624Q97.84688 37.784374 96.81563 37.784374Q95.1125 37.784374 94.19063 36.95625Q93.26875 36.1125 93.26875 34.815624Q93.26875 34.05 93.6125 33.425Q93.97188 32.8 94.53438 32.425Q95.09688 32.034374 95.8 31.83125Q96.31563 31.70625 97.3625 31.565624Q99.4875 31.315624 100.4875 30.971874Q100.50313 30.6125 100.50313 30.503124Q100.50313 29.440624 100.00313 28.9875Q99.33125 28.39375 98.00313 28.39375Q96.75313 28.39375 96.15938 28.83125Q95.58125 29.26875 95.3 30.378124L93.58125 30.14375Q93.81563 29.034374 94.34688 28.3625Q94.87813 27.675 95.89375 27.315624Q96.90938 26.940624 98.25313 26.940624Q99.58125 26.940624 100.40938 27.253124Q101.2375 27.565624 101.62813 28.05Q102.01875 28.51875 102.175 29.2375Q102.26875 29.690624 102.26875 30.8625L102.26875 33.20625Q102.26875 35.659374 102.37813 36.315624Q102.4875 36.95625 102.83125 37.55L100.9875 37.55Q100.72188 37.003124 100.64375 36.26875ZM100.4875 32.346874Q99.53438 32.7375 97.6125 33.003124Q96.53438 33.159374 96.08125 33.3625Q95.64375 33.55 95.39375 33.925Q95.14375 34.3 95.14375 34.76875Q95.14375 35.471874 95.675 35.940624Q96.20625 36.409374 97.2375 36.409374Q98.25313 36.409374 99.03438 35.971874Q99.83125 35.51875 100.20625 34.753124Q100.4875 34.14375 100.4875 32.9875L100.4875 32.346874ZM104.87813 25.253124L104.87813 23.2375L106.64375 23.2375L106.64375 25.253124L104.87813 25.253124ZM104.87813 37.55L104.87813 27.175L106.64375 27.175L106.64375 37.55L104.87813 37.55ZM108.8625 37.55L108.8625 27.175L110.45625 27.175L110.45625 28.659374Q111.59688 26.940624 113.75313 26.940624Q114.69063 26.940624 115.47188 27.284374Q116.26875 27.6125 116.65938 28.159374Q117.05 28.70625 117.20625 29.45625Q117.3 29.95625 117.3 31.175L117.3 37.55L115.53438 37.55L115.53438 31.2375Q115.53438 30.159374 115.33125 29.628124Q115.12813 29.096874 114.59688 28.784374Q114.08125 28.471874 113.37813 28.471874Q112.25313 28.471874 111.44063 29.190624Q110.62813 29.89375 110.62813 31.878124L110.62813 37.55L108.8625 37.55ZM125.01875 37.55L125.01875 23.2375L126.90938 23.2375L126.90938 35.8625L133.95625 35.8625L133.95625 37.55L125.01875 37.55ZM135.22188 32.3625Q135.22188 29.4875 136.81563 28.096874Q138.15938 26.940624 140.08125 26.940624Q142.22188 26.940624 143.56563 28.346874Q144.925 29.753124 144.925 32.221874Q144.925 34.221874 144.33125 35.378124Q143.7375 36.51875 142.58125 37.159374Q141.44063 37.784374 140.08125 37.784374Q137.89375 37.784374 136.55 36.39375Q135.22188 34.9875 135.22188 32.3625ZM137.01875 32.3625Q137.01875 34.3625 137.87813 35.346874Q138.75313 36.33125 140.08125 36.33125Q141.39375 36.33125 142.25313 35.346874Q143.12813 34.346874 143.12813 32.3Q143.12813 30.378124 142.25313 29.39375Q141.37813 28.39375 140.08125 28.39375Q138.75313 28.39375 137.87813 29.39375Q137.01875 30.378124 137.01875 32.3625ZM153.64375 36.26875Q152.65938 37.096874 151.75313 37.440624Q150.84688 37.784374 149.81563 37.784374Q148.1125 37.784374 147.19063 36.95625Q146.26875 36.1125 146.26875 34.815624Q146.26875 34.05 146.6125 33.425Q146.97188 32.8 147.53438 32.425Q148.09688 32.034374 148.8 31.83125Q149.31563 31.70625 150.3625 31.565624Q152.4875 31.315624 153.4875 30.971874Q153.50313 30.6125 153.50313 30.503124Q153.50313 29.440624 153.00313 28.9875Q152.33125 28.39375 151.00313 28.39375Q149.75313 28.39375 149.15938 28.83125Q148.58125 29.26875 148.3 30.378124L146.58125 30.14375Q146.81563 29.034374 147.34688 28.3625Q147.87813 27.675 148.89375 27.315624Q149.90938 26.940624 151.25313 26.940624Q152.58125 26.940624 153.40938 27.253124Q154.2375 27.565624 154.62813 28.05Q155.01875 28.51875 155.175 29.2375Q155.26875 29.690624 155.26875 30.8625L155.26875 33.20625Q155.26875 35.659374 155.37813 36.315624Q155.4875 36.95625 155.83125 37.55L153.9875 37.55Q153.72188 37.003124 153.64375 36.26875ZM153.4875 32.346874Q152.53438 32.7375 150.6125 33.003124Q149.53438 33.159374 149.08125 33.3625Q148.64375 33.55 148.39375 33.925Q148.14375 34.3 148.14375 34.76875Q148.14375 35.471874 148.675 35.940624Q149.20625 36.409374 150.2375 36.409374Q151.25313 36.409374 152.03438 35.971874Q152.83125 35.51875 153.20625 34.753124Q153.4875 34.14375 153.4875 32.9875L153.4875 32.346874ZM164.59688 37.55L164.59688 36.2375Q163.6125 37.784374 161.69063 37.784374Q160.45625 37.784374 159.40938 37.096874Q158.37813 36.409374 157.8 35.190624Q157.2375 33.971874 157.2375 32.378124Q157.2375 30.815624 157.75313 29.55Q158.26875 28.284374 159.3 27.6125Q160.34688 26.940624 161.6125 26.940624Q162.55 26.940624 163.28438 27.346874Q164.01875 27.7375 164.4875 28.3625L164.4875 23.2375L166.22188 23.2375L166.22188 37.55L164.59688 37.55ZM159.03438 32.378124Q159.03438 34.3625 159.87813 35.346874Q160.72188 36.33125 161.8625 36.33125Q163.01875 36.33125 163.81563 35.39375Q164.62813 34.45625 164.62813 32.51875Q164.62813 30.39375 163.8 29.39375Q162.9875 28.39375 161.78438 28.39375Q160.6125 28.39375 159.81563 29.3625Q159.03438 30.315624 159.03438 32.378124ZM178.7375 37.55L178.7375 24.925L174.01875 24.925L174.01875 23.2375L185.3625 23.2375L185.3625 24.925L180.62813 24.925L180.62813 37.55L178.7375 37.55ZM186.87813 25.253124L186.87813 23.2375L188.64375 23.2375L188.64375 25.253124L186.87813 25.253124ZM186.87813 37.55L186.87813 27.175L188.64375 27.175L188.64375 37.55L186.87813 37.55ZM190.8625 37.55L190.8625 27.175L192.44063 27.175L192.44063 28.628124Q192.925 27.878124 193.7375 27.409374Q194.55 26.940624 195.58125 26.940624Q196.7375 26.940624 197.47188 27.425Q198.20625 27.89375 198.51875 28.753124Q199.75313 26.940624 201.72188 26.940624Q203.26875 26.940624 204.09688 27.8Q204.925 28.659374 204.925 30.425L204.925 37.55L203.175 37.55L203.175 31.01875Q203.175 29.95625 203.00313 29.503124Q202.83125 29.034374 202.37813 28.753124Q201.94063 28.471874 201.33125 28.471874Q200.2375 28.471874 199.50313 29.20625Q198.78438 29.925 198.78438 31.51875L198.78438 37.55L197.03438 37.55L197.03438 30.815624Q197.03438 29.64375 196.59688 29.065624Q196.175 28.471874 195.19063 28.471874Q194.45625 28.471874 193.81563 28.8625Q193.19063 29.253124 192.90938 30.003124Q192.62813 30.753124 192.62813 32.175L192.62813 37.55L190.8625 37.55ZM213.97188 34.20625L215.78438 34.440624Q215.3625 36.01875 214.19063 36.909374Q213.03438 37.784374 211.22188 37.784374Q208.95625 37.784374 207.6125 36.39375Q206.28438 34.9875 206.28438 32.45625Q206.28438 29.83125 207.62813 28.39375Q208.97188 26.940624 211.12813 26.940624Q213.20625 26.940624 214.51875 28.3625Q215.84688 29.76875 215.84688 32.346874Q215.84688 32.503124 215.83125 32.815624L208.09688 32.815624Q208.19063 34.51875 209.06563 35.425Q209.94063 36.33125 211.2375 36.33125Q212.20625 36.33125 212.87813 35.83125Q213.56563 35.315624 213.97188 34.20625ZM208.19063 31.3625L213.9875 31.3625Q213.87813 30.065624 213.33125 29.409374Q212.4875 28.39375 211.14375 28.39375Q209.94063 28.39375 209.1125 29.20625Q208.28438 30.003124 208.19063 31.3625ZM217.15938 34.45625L218.90938 34.175Q219.05 35.221874 219.72188 35.784374Q220.39375 36.33125 221.59688 36.33125Q222.8 36.33125 223.37813 35.846874Q223.97188 35.346874 223.97188 34.690624Q223.97188 34.096874 223.45625 33.753124Q223.09688 33.51875 221.65938 33.159374Q219.72188 32.659374 218.97188 32.315624Q218.2375 31.95625 217.84688 31.33125Q217.45625 30.690624 217.45625 29.925Q217.45625 29.2375 217.76875 28.64375Q218.09688 28.05 218.64375 27.659374Q219.05 27.3625 219.75313 27.159374Q220.47188 26.940624 221.28438 26.940624Q222.50313 26.940624 223.425 27.3Q224.34688 27.64375 224.78438 28.253124Q225.22188 28.846874 225.39375 29.846874L223.675 30.08125Q223.55 29.284374 222.9875 28.846874Q222.425 28.39375 221.40938 28.39375Q220.19063 28.39375 219.675 28.8Q219.15938 29.190624 219.15938 29.721874Q219.15938 30.065624 219.37813 30.346874Q219.58125 30.628124 220.05 30.815624Q220.31563 30.909374 221.59688 31.253124Q223.47188 31.753124 224.20625 32.08125Q224.94063 32.39375 225.3625 33.003124Q225.78438 33.596874 225.78438 34.503124Q225.78438 35.378124 225.26875 36.159374Q224.75313 36.940624 223.78438 37.3625Q222.81563 37.784374 221.59688 37.784374Q219.58125 37.784374 218.51875 36.940624Q217.45625 36.096874 217.15938 34.45625ZM237.22188 41.753124Q235.76875 39.925 234.76875 37.471874Q233.76875 35.003124 233.76875 32.3625Q233.76875 30.034374 234.51875 27.909374Q235.39375 25.440624 237.22188 22.9875L238.4875 22.9875Q237.3 25.01875 236.925 25.89375Q236.33125 27.2375 235.9875 28.70625Q235.56563 30.534374 235.56563 32.378124Q235.56563 37.065624 238.4875 41.753124L237.22188 41.753124ZM245.19063 37.55L239.64375 23.2375L241.69063 23.2375L245.40938 33.628124Q245.8625 34.878124 246.15938 35.971874Q246.4875 34.8 246.94063 33.628124L250.8 23.2375L252.7375 23.2375L247.12813 37.55L245.19063 37.55ZM260.65936 37.55L260.65936 36.01875Q259.45624 37.784374 257.3781 37.784374Q256.45624 37.784374 255.65938 37.440624Q254.8625 37.08125 254.47188 36.55Q254.09688 36.01875 253.94063 35.2375Q253.83125 34.721874 253.83125 33.596874L253.83125 27.175L255.58125 27.175L255.58125 32.925Q255.58125 34.3 255.69063 34.784374Q255.8625 35.471874 256.39374 35.878124Q256.9406 36.26875 257.72186 36.26875Q258.51874 36.26875 259.20624 35.8625Q259.90936 35.45625 260.1906 34.76875Q260.4875 34.065624 260.4875 32.7375L260.4875 27.175L262.2375 27.175L262.2375 37.55L260.65936 37.55ZM263.83124 37.55L263.83124 23.2375L265.58124 23.2375L265.58124 37.55L263.83124 37.55ZM267.8781 37.55L267.8781 23.2375L269.64374 23.2375L269.64374 31.39375L273.8 27.175L276.0656 27.175L272.1125 31.01875L276.47186 37.55L274.3 37.55L270.8781 32.253124L269.64374 33.440624L269.64374 37.55L267.8781 37.55ZM284.64374 36.26875Q283.65936 37.096874 282.7531 37.440624Q281.84686 37.784374 280.8156 37.784374Q279.1125 37.784374 278.1906 36.95625Q277.26874 36.1125 277.26874 34.815624Q277.26874 34.05 277.6125 33.425Q277.97186 32.8 278.53436 32.425Q279.09686 32.034374 279.8 31.83125Q280.3156 31.70625 281.3625 31.565624Q283.4875 31.315624 284.4875 30.971874Q284.5031 30.6125 284.5031 30.503124Q284.5031 29.440624 284.0031 28.9875Q283.33124 28.39375 282.0031 28.39375Q280.7531 28.39375 280.15936 28.83125Q279.58124 29.26875 279.3 30.378124L277.58124 30.14375Q277.8156 29.034374 278.34686 28.3625Q278.8781 27.675 279.89374 27.315624Q280.90936 26.940624 282.2531 26.940624Q283.58124 26.940624 284.40936 27.253124Q285.2375 27.565624 285.6281 28.05Q286.01874 28.51875 286.175 29.2375Q286.26874 29.690624 286.26874 30.8625L286.26874 33.20625Q286.26874 35.659374 286.3781 36.315624Q286.4875 36.95625 286.83124 37.55L284.9875 37.55Q284.72186 37.003124 284.64374 36.26875ZM284.4875 32.346874Q283.53436 32.7375 281.6125 33.003124Q280.53436 33.159374 280.08124 33.3625Q279.64374 33.55 279.39374 33.925Q279.14374 34.3 279.14374 34.76875Q279.14374 35.471874 279.675 35.940624Q280.20624 36.409374 281.2375 36.409374Q282.2531 36.409374 283.03436 35.971874Q283.83124 35.51875 284.20624 34.753124Q284.4875 34.14375 284.4875 32.9875L284.4875 32.346874ZM288.8625 37.55L288.8625 27.175L290.45624 27.175L290.45624 28.659374Q291.59686 26.940624 293.7531 26.940624Q294.6906 26.940624 295.47186 27.284374Q296.26874 27.6125 296.65936 28.159374Q297.05 28.70625 297.20624 29.45625Q297.3 29.95625 297.3 31.175L297.3 37.55L295.53436 37.55L295.53436 31.2375Q295.53436 30.159374 295.33124 29.628124Q295.1281 29.096874 294.59686 28.784374Q294.08124 28.471874 293.3781 28.471874Q292.2531 28.471874 291.4406 29.190624Q290.6281 29.89375 290.6281 31.878124L290.6281 37.55L288.8625 37.55ZM300.01874 41.753124L298.76874 41.753124Q301.675 37.065624 301.675 32.378124Q301.675 30.534374 301.26874 28.7375Q300.925 27.26875 300.33124 25.925Q299.95624 25.034374 298.76874 22.9875L300.01874 22.9875Q301.8625 25.440624 302.7375 27.909374Q303.4875 30.034374 303.4875 32.3625Q303.4875 35.003124 302.47186 37.471874Q301.47186 39.925 300.01874 41.753124Z" fill-rule="nonzero"/></svg>